<?xml version="1.0" encoding="utf-8"?>
<!-- Generator: Adobe Illustrator 16.0.0, SVG Export Plug-In . SVG Version: 6.00 Build 0)  -->
<!DOCTYPE svg PUBLIC "-//W3C//DTD SVG 1.1//EN" "http://www.w3.org/Graphics/SVG/1.1/DTD/svg11.dtd">
<svg version="1.1" xmlns="http://www.w3.org/2000/svg" xmlns:xlink="http://www.w3.org/1999/xlink" x="0px" y="0px" width="725px"
	 height="169px" viewBox="108.5 0 725 169" enable-background="new 108.5 0 725 169" xml:space="preserve">
<g id="Layer_1">
	<g display="none">
		<polyline display="inline" fill="none" stroke="#A8CFEF" stroke-miterlimit="10" points="124.028,33.125 167.73,33.125 
			217.287,66.92 711.299,66.92 		"/>
		<polyline display="inline" fill="none" stroke="#A8CFEF" stroke-miterlimit="10" points="87.095,75.665 127.131,75.665 
			176.687,109.46 692.528,109.46 		"/>
		<polyline display="inline" fill="none" stroke="#A8CFEF" stroke-miterlimit="10" points="-19.087,115.844 69.081,115.844 
			99.418,95.832 685.08,95.832 		"/>
		<polyline display="inline" fill="none" stroke="#A8CFEF" stroke-miterlimit="10" points="52.677,138.145 144.512,138.145 
			214.521,82.693 692.463,82.693 		"/>
		<g display="inline">
			<g opacity="0.3">
				<g>
					<g>
						<defs>
							<rect id="SVGID_1_" x="-76.67" y="89.645" width="59.155" height="52.396"/>
						</defs>
						<clipPath id="SVGID_2_">
							<use xlink:href="#SVGID_1_"  overflow="visible"/>
						</clipPath>
						<polygon clip-path="url(#SVGID_2_)" fill="#80B5E5" points="-30.86,141.582 -63.325,141.582 -76.158,115.845 -63.325,90.104 
							-30.86,90.104 -18.027,115.845 						"/>
					</g>
					<g>
						<defs>
							<rect id="SVGID_3_" x="-76.67" y="89.645" width="59.155" height="52.396"/>
						</defs>
						<clipPath id="SVGID_4_">
							<use xlink:href="#SVGID_3_"  overflow="visible"/>
						</clipPath>
						<polygon clip-path="url(#SVGID_4_)" fill="none" stroke="#0564AE" stroke-width="0.5" stroke-miterlimit="10" points="
							-30.86,141.582 -63.325,141.582 -76.158,115.845 -63.325,90.104 -30.86,90.104 -18.027,115.845 						"/>
					</g>
				</g>
			</g>
			<g opacity="0.3">
				<g>
					<g>
						<defs>
							<rect id="SVGID_5_" x="29.342" y="49.353" width="59.156" height="52.395"/>
						</defs>
						<clipPath id="SVGID_11_">
							<use xlink:href="#SVGID_5_"  overflow="visible"/>
						</clipPath>
						<polygon clip-path="url(#SVGID_11_)" fill="#80B5E5" points="75.152,101.289 42.688,101.289 29.855,75.55 42.688,49.812 
							75.152,49.812 87.986,75.55 						"/>
					</g>
					<g>
						<defs>
							<rect id="SVGID_12_" x="29.342" y="49.353" width="59.156" height="52.395"/>
						</defs>
						<clipPath id="SVGID_13_">
							<use xlink:href="#SVGID_12_"  overflow="visible"/>
						</clipPath>
						<polygon clip-path="url(#SVGID_13_)" fill="none" stroke="#0564AE" stroke-width="0.5" stroke-miterlimit="10" points="
							75.152,101.289 42.688,101.289 29.855,75.55 42.688,49.812 75.152,49.812 87.986,75.55 						"/>
					</g>
				</g>
			</g>
			<g opacity="0.3">
				<g>
					<g>
						<defs>
							<rect id="SVGID_14_" x="76.064" y="11.105" width="48.262" height="42.75"/>
						</defs>
						<clipPath id="SVGID_15_">
							<use xlink:href="#SVGID_14_"  overflow="visible"/>
						</clipPath>
						<polygon clip-path="url(#SVGID_15_)" fill="#80B5E5" points="113.386,53.396 87.004,53.396 76.576,32.481 87.004,11.564 
							113.386,11.564 123.813,32.481 						"/>
					</g>
					<g>
						<defs>
							<rect id="SVGID_16_" x="76.064" y="11.105" width="48.262" height="42.75"/>
						</defs>
						<clipPath id="SVGID_17_">
							<use xlink:href="#SVGID_16_"  overflow="visible"/>
						</clipPath>
						<polygon clip-path="url(#SVGID_17_)" fill="none" stroke="#0564AE" stroke-width="0.5" stroke-miterlimit="10" points="
							113.386,53.396 87.004,53.396 76.576,32.481 87.004,11.564 113.386,11.564 123.813,32.481 						"/>
					</g>
				</g>
			</g>
			<g opacity="0.3">
				<g>
					<g>
						<defs>
							<rect id="SVGID_18_" x="4.565" y="118.354" width="48.262" height="42.752"/>
						</defs>
						<clipPath id="SVGID_19_">
							<use xlink:href="#SVGID_18_"  overflow="visible"/>
						</clipPath>
						<polygon clip-path="url(#SVGID_19_)" fill="#80B5E5" points="41.886,160.646 15.505,160.646 5.077,139.729 15.505,118.812 
							41.886,118.812 52.314,139.729 						"/>
					</g>
					<g>
						<defs>
							<rect id="SVGID_20_" x="4.565" y="118.354" width="48.262" height="42.752"/>
						</defs>
						<clipPath id="SVGID_21_">
							<use xlink:href="#SVGID_20_"  overflow="visible"/>
						</clipPath>
						<polygon clip-path="url(#SVGID_21_)" fill="none" stroke="#0564AE" stroke-width="0.5" stroke-miterlimit="10" points="
							41.886,160.646 15.505,160.646 5.077,139.729 15.505,118.812 41.886,118.812 52.314,139.729 						"/>
					</g>
				</g>
			</g>
			<g opacity="0.3">
				<g>
					<g>
						<defs>
							<rect id="SVGID_22_" x="-7.232" y="71.77" width="36.439" height="32.28"/>
						</defs>
						<clipPath id="SVGID_23_">
							<use xlink:href="#SVGID_22_"  overflow="visible"/>
						</clipPath>
						<polygon clip-path="url(#SVGID_23_)" fill="#80B5E5" points="20.876,103.593 1.097,103.593 -6.72,87.909 1.097,72.229 
							20.876,72.229 28.696,87.909 						"/>
					</g>
					<g>
						<defs>
							<rect id="SVGID_24_" x="-7.232" y="71.77" width="36.439" height="32.28"/>
						</defs>
						<clipPath id="SVGID_25_">
							<use xlink:href="#SVGID_24_"  overflow="visible"/>
						</clipPath>
						<polygon clip-path="url(#SVGID_25_)" fill="none" stroke="#0564AE" stroke-width="0.5" stroke-miterlimit="10" points="
							20.876,103.593 1.097,103.593 -6.72,87.909 1.097,72.229 20.876,72.229 28.696,87.909 						"/>
					</g>
				</g>
			</g>
			<g opacity="0.3">
				<g>
					<g>
						<defs>
							<rect id="SVGID_26_" x="109.68" y="60.481" width="36.438" height="32.279"/>
						</defs>
						<clipPath id="SVGID_27_">
							<use xlink:href="#SVGID_26_"  overflow="visible"/>
						</clipPath>
						<polygon clip-path="url(#SVGID_27_)" fill="#80B5E5" points="137.789,92.305 118.009,92.305 110.191,76.621 118.009,60.94 
							137.789,60.94 145.608,76.621 						"/>
					</g>
					<g>
						<defs>
							<rect id="SVGID_28_" x="109.68" y="60.481" width="36.438" height="32.279"/>
						</defs>
						<clipPath id="SVGID_29_">
							<use xlink:href="#SVGID_28_"  overflow="visible"/>
						</clipPath>
						<polygon clip-path="url(#SVGID_29_)" fill="none" stroke="#0564AE" stroke-width="0.5" stroke-miterlimit="10" points="
							137.789,92.305 118.009,92.305 110.191,76.621 118.009,60.94 137.789,60.94 145.608,76.621 						"/>
					</g>
				</g>
			</g>
			<g opacity="0.3">
				<g>
					<g>
						<defs>
							<rect id="SVGID_30_" x="93.18" y="106.314" width="28.897" height="25.597"/>
						</defs>
						<clipPath id="SVGID_31_">
							<use xlink:href="#SVGID_30_"  overflow="visible"/>
						</clipPath>
						<polygon clip-path="url(#SVGID_31_)" fill="#80B5E5" points="115.411,131.454 99.844,131.454 93.691,119.115 99.844,106.771 
							115.411,106.771 121.563,119.115 						"/>
					</g>
					<g>
						<defs>
							<rect id="SVGID_32_" x="93.18" y="106.314" width="28.897" height="25.597"/>
						</defs>
						<clipPath id="SVGID_33_">
							<use xlink:href="#SVGID_32_"  overflow="visible"/>
						</clipPath>
						<polygon clip-path="url(#SVGID_33_)" fill="none" stroke="#0564AE" stroke-width="0.5" stroke-miterlimit="10" points="
							115.411,131.454 99.844,131.454 93.691,119.115 99.844,106.771 115.411,106.771 121.563,119.115 						"/>
					</g>
				</g>
			</g>
		</g>
		<g display="inline">
			<path fill="#D4B400" stroke="#FFFFFF" stroke-width="2" stroke-miterlimit="10" d="M168.815,49.307
				c-1.743-3.196-3.949-5.715-6.611-7.556c-2.667-1.839-5.937-2.761-9.81-2.761c-3.779,0-7.218,1.089-10.316,3.269
				c-3.102,2.18-5.33,5.548-6.685,10.101l-25.14,85.442h29.498l9.156-33.856c1.453-5.521,2.711-10.391,3.778-14.604
				c1.065-4.213,1.983-8.257,2.76-12.133c0.774,1.648,1.573,3.343,2.398,5.086c0.821,1.743,1.791,3.658,2.906,5.739
				c1.112,2.085,2.346,4.433,3.705,7.048c1.354,2.617,2.907,5.573,4.651,8.864l13.077,24.559c1.259,2.424,2.543,4.336,3.852,5.739
				c1.307,1.403,2.638,2.496,3.994,3.271c1.357,0.772,2.809,1.281,4.36,1.524c1.549,0.239,3.246,0.366,5.087,0.366
				c1.839,0,3.535-0.127,5.086-0.366c1.546-0.243,3.001-0.752,4.357-1.524c1.357-0.773,2.69-1.865,3.998-3.271
				c1.309-1.403,2.592-3.315,3.852-5.739l13.079-24.411c3.291-6.297,5.958-11.505,7.991-15.623c2.036-4.117,3.875-7.87,5.522-11.261
				c0.774,3.973,1.694,8.041,2.761,12.207c1.065,4.165,2.373,9.009,3.923,14.529l9.155,33.857h29.934l-24.559-85.442
				c-1.356-4.552-3.561-7.92-6.611-10.101c-3.052-2.18-6.466-3.269-10.245-3.269c-3.973,0-7.291,0.945-9.956,2.833
				c-2.666,1.888-4.866,4.386-6.61,7.484l-15.548,27.611c-2.132,3.777-3.997,7.071-5.595,9.879
				c-1.598,2.812-3.003,5.353-4.215,7.628c-1.211,2.278-2.276,4.313-3.195,6.104c-0.923,1.796-1.77,3.562-2.543,5.307
				c-0.872-1.743-1.768-3.535-2.688-5.377c-0.923-1.84-1.986-3.874-3.196-6.104c-1.214-2.229-2.617-4.771-4.215-7.631
				c-1.598-2.854-3.465-6.174-5.596-9.954L168.815,49.307z"/>
		</g>
		<g display="inline">
			<path stroke="#D4B400" stroke-width="2" stroke-miterlimit="10" d="M386.943,99.438c3.293,0,5.666,0.558,7.121,1.672
				c1.452,1.111,2.18,2.736,2.18,4.867c0,2.229-0.728,3.922-2.18,5.086c-1.455,1.162-3.828,1.744-7.121,1.744h-55.364V99.438
				H386.943z M415.936,85.27c1.597-1.112,3.003-2.52,4.214-4.213c1.211-1.694,2.202-3.656,2.979-5.885
				c0.773-2.228,1.162-4.796,1.162-7.703c0-4.455-0.898-8.356-2.688-11.698c-1.798-3.343-4.359-6.149-7.702-8.427
				c-3.346-2.276-7.364-3.972-12.062-5.087c-4.701-1.113-9.955-1.672-15.768-1.672h-64.375L301.354,65.87h86.026
				c2.13,0,4.07,0.436,5.813,1.309c1.742,0.871,2.613,2.519,2.613,4.939c0,2.521-0.849,4.24-2.542,5.161
				c-1.695,0.922-3.657,1.38-5.886,1.38h-86.026v59.14h85.445c7.652,0,14.023-0.728,19.109-2.178
				c5.086-1.453,9.129-3.439,12.133-5.957c3.002-2.521,5.134-5.499,6.395-8.938c1.259-3.438,1.892-7.193,1.892-11.262
				c0-5.814-1.48-10.56-4.435-14.24c-2.954-3.683-6.562-6.152-10.825-7.412C412.713,87.229,414.336,86.383,415.936,85.27z"/>
			<polygon stroke="#D4B400" stroke-width="2" stroke-miterlimit="10" points="471.661,112.807 471.661,99.584 531.384,99.584 
				548.677,77.494 471.661,77.494 471.661,65.869 534.579,65.869 554.051,40.583 441.436,40.583 441.436,137.798 535.018,137.798 
				554.346,112.807 			"/>
			<polygon stroke="#D4B400" stroke-width="2" stroke-miterlimit="10" points="594.886,112.807 594.886,99.584 654.609,99.584 
				671.903,77.494 594.886,77.494 594.886,65.869 657.806,65.869 677.277,40.583 564.661,40.583 564.661,137.798 658.244,137.798 
				677.571,112.807 			"/>
			<polygon points="691.188,95.718 685.126,95.718 682.727,90.91 685.126,86.102 691.188,86.102 693.586,90.91 			"/>
			<polygon fill="none" stroke="#000000" stroke-miterlimit="10" points="691.188,95.718 685.126,95.718 682.727,90.91 
				685.126,86.102 691.188,86.102 693.586,90.91 			"/>
			<polygon points="696.62,81.374 690.554,81.374 688.156,76.564 690.554,71.756 696.62,71.756 699.016,76.564 			"/>
			<polygon fill="none" stroke="#000000" stroke-miterlimit="10" points="696.62,81.374 690.554,81.374 688.156,76.564 
				690.554,71.756 696.62,71.756 699.016,76.564 			"/>
			<polygon points="680.159,108.311 675.495,108.311 673.651,104.613 675.495,100.913 680.159,100.913 682.004,104.613 			"/>
			<polygon fill="none" stroke="#000000" stroke-miterlimit="10" points="680.159,108.311 675.495,108.311 673.651,104.613 
				675.495,100.913 680.159,100.913 682.004,104.613 			"/>
			<polygon points="704.372,100.525 698.308,100.525 695.908,95.718 698.308,90.91 704.372,90.91 706.771,95.718 			"/>
			<polygon fill="none" stroke="#000000" stroke-miterlimit="10" points="704.372,100.525 698.308,100.525 695.908,95.718 
				698.308,90.91 704.372,90.91 706.771,95.718 			"/>
			<polygon points="663.947,110.17 659.282,110.17 657.438,106.475 659.282,102.771 663.947,102.771 665.791,106.475 			"/>
			<polygon fill="none" stroke="#000000" stroke-miterlimit="10" points="663.947,110.17 659.282,110.17 657.438,106.475 
				659.282,102.771 663.947,102.771 665.791,106.475 			"/>
			<polygon points="709.102,114.12 704.438,114.12 702.593,110.42 704.438,106.721 709.102,106.721 710.946,110.42 			"/>
			<polygon fill="none" stroke="#000000" stroke-miterlimit="10" points="709.102,114.12 704.438,114.12 702.593,110.42 
				704.438,106.721 709.102,106.721 710.946,110.42 			"/>
			<polygon points="709.102,87.968 704.438,87.968 702.593,84.269 704.438,80.569 709.102,80.569 710.946,84.269 			"/>
			<polygon fill="none" stroke="#000000" stroke-miterlimit="10" points="709.102,87.968 704.438,87.968 702.593,84.269 
				704.438,80.569 709.102,80.569 710.946,84.269 			"/>
			<polygon points="694.86,123.916 690.197,123.916 688.354,120.219 690.197,116.52 694.86,116.52 696.704,120.219 			"/>
			<polygon fill="none" stroke="#000000" stroke-miterlimit="10" points="694.86,123.916 690.197,123.916 688.354,120.219 
				690.197,116.52 694.86,116.52 696.704,120.219 			"/>
			<polygon points="711.055,127.207 704.99,127.207 702.591,122.396 704.99,117.588 711.055,117.588 713.452,122.396 			"/>
			<polygon fill="none" stroke="#000000" stroke-miterlimit="10" points="711.055,127.207 704.99,127.207 702.591,122.396 
				704.99,117.588 711.055,117.588 713.452,122.396 			"/>
			<polygon fill="#ACD3EF" points="731.911,114.639 727.985,114.639 726.436,111.527 727.985,108.413 731.911,108.413 
				733.462,111.527 			"/>
			<polygon fill="none" stroke="#439AD6" stroke-width="0.5" stroke-miterlimit="10" points="731.911,114.639 727.985,114.639 
				726.436,111.527 727.985,108.413 731.911,108.413 733.462,111.527 			"/>
			<polygon fill="#ACD3EF" points="719.077,94.473 715.153,94.473 713.604,91.359 715.153,88.247 719.077,88.247 720.628,91.359 			
				"/>
			<polygon fill="none" stroke="#439AD6" stroke-width="0.5" stroke-miterlimit="10" points="719.077,94.473 715.153,94.473 
				713.604,91.359 715.153,88.247 719.077,88.247 720.628,91.359 			"/>
			<polygon points="720.527,109.25 715.862,109.25 714.019,105.552 715.862,101.852 720.527,101.852 722.372,105.552 			"/>
			<polygon fill="none" stroke="#000000" stroke-miterlimit="10" points="720.527,109.25 715.862,109.25 714.019,105.552 
				715.862,101.852 720.527,101.852 722.372,105.552 			"/>
			<polygon points="690.438,111.809 687.627,111.809 686.521,109.58 687.627,107.354 690.438,107.354 691.55,109.58 			"/>
			<polygon fill="none" stroke="#000000" stroke-miterlimit="10" points="690.438,111.809 687.627,111.809 686.521,109.58 
				687.627,107.354 690.438,107.354 691.55,109.58 			"/>
			<polygon points="675.771,93.477 672.961,93.477 671.854,91.247 672.961,89.021 675.771,89.021 676.884,91.247 			"/>
			<polygon fill="none" stroke="#000000" stroke-miterlimit="10" points="675.771,93.477 672.961,93.477 671.854,91.247 
				672.961,89.021 675.771,89.021 676.884,91.247 			"/>
			<polygon points="648.271,109.975 645.461,109.975 644.354,107.748 645.461,105.52 648.271,105.52 649.384,107.748 			"/>
			<polygon fill="none" stroke="#000000" stroke-miterlimit="10" points="648.271,109.975 645.461,109.975 644.354,107.748 
				645.461,105.52 648.271,105.52 649.384,107.748 			"/>
		</g>
	</g>
</g>
<g id="Layer_3">
	<g>
		<path fill-rule="evenodd" clip-rule="evenodd" fill="#FFFFFF" stroke="#000000" stroke-width="2" stroke-miterlimit="10" d="
			M156.111,161.031c-0.854,1.354-1.462,3.488-2.724,3.994c-1.25,0.502-3.301-0.365-4.746-1.121
			c-2.412-1.262-5.024-2.535-6.833-4.475c-3.772-4.041-7.74-8.15-10.413-12.91c-3.624-6.461-5.578-13.859-9.235-20.295
			c-3.483-6.125-4.303-12.748-5.698-19.312c-1.57-7.391-1.791-14.914-1.067-22.417c0.727-7.534,1.189-15.162,2.781-22.528
			c1.756-8.128,4.731-15.985,7.046-23.998c1.571-5.438,3.35-10.758,7.16-15.087c1.291-1.467,2.922-2.635,4.397-3.939
			c0.354,0.239,0.709,0.479,1.063,0.719c-0.505,1.651-0.817,3.396-1.559,4.935c-1.209,2.507-2.997,4.763-4.01,7.331
			c-2.792,7.082-5.783,14.138-7.819,21.447c-2.898,10.406-4.206,21.074-2.997,31.964c0.539,4.857-0.01,9.863,0.781,14.66
			c0.967,5.863,2.643,11.631,4.346,17.34c1.686,5.65,3.156,11.455,7.613,15.854c0.75,0.744,0.675,2.27,1.126,3.375
			c2.021,4.965,5.089,9.129,9.03,12.818c2.894,2.711,5.16,6.082,7.837,9.041C153.003,159.324,154.254,159.824,156.111,161.031z"/>
		<path fill-rule="evenodd" clip-rule="evenodd" fill="#FFFFFF" stroke="#000000" stroke-width="2" stroke-miterlimit="10" d="
			M388.773,137.227c1.369-0.07,2.233-0.375,2.845-0.105c2.863,1.26,5.636,2.727,8.491,4.006c0.795,0.357,1.79,0.24,2.646,0.496
			c1.545,0.465,3.039,1.102,4.584,1.562c1.178,0.348,2.527,0.303,3.575,0.855c1.167,0.615,2.079,1.711,3.1,2.598
			c-1.146,0.871-2.482,2.658-3.407,2.467c-6.309-1.314-12.555-2.963-18.769-4.691c-1.934-0.535-3.95-1.359-5.476-2.604
			c-1.215-0.992-2.423-2.809-2.461-4.291c-0.206-7.711-0.191-15.436,0.049-23.145c0.228-7.318,0.837-14.621,1.259-21.934
			c0.545-9.474,1.181-18.942,1.567-28.422c0.308-7.547,0.438-15.106,0.382-22.659c-0.038-4.872-0.503-9.746-0.915-14.605
			c-0.061-0.707-0.898-1.35-1.352-1.989c1.757-1.259,3.48-2.492,5.438-3.893c0.29,0.872,0.78,1.606,0.728,2.3
			c-0.575,7.463,0.4,14.785,1.803,22.086c0.142,0.732-0.337,1.566-0.341,2.354c-0.018,4.281,0.127,8.562,0.005,12.838
			c-0.068,2.392-0.778,4.771-0.788,7.158c-0.018,4.794,0.437,9.594,0.342,14.382c-0.097,4.93-0.709,9.848-0.921,14.778
			c-0.177,4.137,0.161,8.307-0.198,12.418c-0.647,7.395-1.714,14.748-2.45,22.135C388.312,133.312,388.675,135.359,388.773,137.227z
			"/>
		<path fill-rule="evenodd" clip-rule="evenodd" fill="#FFFFFF" stroke="#000000" stroke-width="2" stroke-miterlimit="10" d="
			M489.772,31.924c-0.253,1.764-0.614,3.516-0.731,5.287c-0.124,1.881,0.024,3.776-0.019,5.664
			c-0.172,7.767-0.424,15.533-0.525,23.301c-0.03,2.143,0.445,4.288,0.533,6.438c0.061,1.526-0.111,3.065-0.23,4.596
			c-0.557,7.089-1.338,14.167-1.646,21.266c-0.385,8.973-0.42,17.961-0.55,26.943c-0.075,5.199,0.071,10.406-0.128,15.6
			c-0.055,1.451-0.789,2.982-1.557,4.275c-1.13,1.9-0.314,4.074,1.949,5.719c0.992,0.717,1.428,2.205,2.115,3.344
			c0.342-0.148,0.684-0.297,1.025-0.445c-0.203-0.852-0.406-1.701-0.578-2.426c2.338-0.514,4.945-1.85,7.152-1.359
			c2.341,0.516,1.914-1.609,3.246-2.066c3.908-1.34,7.501-3.58,11.251-5.398c1.697-0.822,3.474-1.477,5.272-2.285
			c1.768-0.709,3.536-1.414,5.304-2.123c0.309,0.289,0.617,0.578,0.926,0.867c-0.621,0.838-1.139,1.789-1.888,2.494
			c-2.168,2.033-4.439,3.951-6.645,5.947c-0.761,0.686-1.31,1.711-2.176,2.15c-7.69,3.879-15.859,6.412-24.411,7.107
			c-1.412,0.115-4.37-2.947-4.428-4.617c-0.39-11.502-1.849-23.004,0.153-34.557c0.742-4.287-0.316-8.863-0.283-13.305
			c0.054-7.35,0.379-14.695,0.477-22.043c0.031-2.331-0.492-4.671-0.41-6.995c0.061-1.696,0.969-3.363,1.03-5.059
			c0.322-8.822,1.014-17.682,0.474-26.458c-0.232-3.787,0.646-6.89,1.771-10.151c0.312-0.906,1.438-1.531,2.189-2.285
			C488.883,31.542,489.327,31.733,489.772,31.924z"/>
		<path fill-rule="evenodd" clip-rule="evenodd" fill="#FFFFFF" stroke="#000000" stroke-width="2" stroke-miterlimit="10" d="
			M189.872,27.643c4.034,0.699,3.639,4.363,4.617,7.012c1.034,2.799,1.79,5.711,2.489,8.617c0.906,3.766,1.596,7.581,2.451,11.357
			c0.899,3.969,1.954,7.902,2.81,11.881c0.828,3.842,1.594,7.703,2.188,11.588c0.429,2.805,0.61,5.656,0.77,8.496
			c0.33,5.824,0.574,11.654,0.847,17.484c0.235,5.031-0.229,10.23,0.929,15.039c0.795,3.299,3.803,6.086,5.893,9.049
			c2.316,3.283,5.99,3.674,9.532,4.357c2.417,0.469,5.328,0.4,5.334,4.062c-5.43,3.812-11.334,1.742-16.376-2.021
			c-1.52-1.135-2.562-2.912-3.819-4.396c-0.445-0.527-0.832-1.473-1.328-1.531c-4.596-0.549-4.678-3.779-4.636-7.279
			c0.072-6.105,0.215-12.223-0.064-18.318c-0.223-4.846-0.859-9.689-1.614-14.486c-1.881-11.967-3.621-23.972-6.048-35.832
			c-1.244-6.072-3.557-11.986-5.938-17.744C186.517,31.61,187.147,29.5,189.872,27.643z"/>
		<path fill-rule="evenodd" clip-rule="evenodd" fill="#FFFFFF" stroke="#000000" stroke-width="2" stroke-miterlimit="10" d="
			M610.568,145.545c-0.37,0.732-0.686,1.355-1.301,2.576c-0.419-1.766-0.681-2.867-1.097-4.621c-0.88,1.131-1.359,1.746-2.542,3.268
			c0.112-4.4,0.072-7.893,0.324-11.363c0.265-3.635,0.675-7.271,1.28-10.863c0.438-2.609,1.176-5.273,5.048-4.971
			c-0.015,3.525-0.042,6.918-0.04,10.309c0,5.201,2.087,7.096,7.054,7.559c4.779,0.443,9.495,1.57,14.249,2.334
			c5.623,0.9,11.269,1.67,16.88,2.637c1.448,0.25,2.8,1.039,4.204,1.557c2.178,0.803,3.402,2.521,2.567,4.572
			c-0.577,1.418-2.192,2.871-3.666,3.385c-5.217,1.816-10.44,1.645-15.874,0.102c-4.223-1.201-8.831-0.984-13.211-1.74
			c-1.644-0.287-3.858-2.615-4.55-2.146c-2.529,1.713-3.778-0.807-5.606-1.072C613.09,146.891,611.977,146.145,610.568,145.545z"/>
		<path fill-rule="evenodd" clip-rule="evenodd" fill="#FFFFFF" stroke="#000000" stroke-width="2" stroke-miterlimit="10" d="
			M360.984,149.398c-5.135-1.391-9.902-3.043-14.808-3.865c-2.774-0.465-4.039-2.168-5.573-3.9
			c-4.465-5.045-4.296-11.162-4.408-17.398c-0.109-6.102-1.158-12.182-1.599-18.287c-0.129-1.791,0.043-3.799,0.778-5.381
			c0.436-0.941,2.55-2.021,3.367-1.695c2.379,0.961,2.9,3.197,2.654,5.746c-0.208,2.162-0.102,4.385,0.156,6.545
			c0.051,0.424,1.421,0.695,2.031,0.971c0.123,2.344,0.296,4.703,0.36,7.066c0.108,4.041,0.296,8.09,0.164,12.125
			c-0.086,2.645,0.746,4.025,3.435,4.627c4.236,0.949,8.438,2.104,12.563,3.453c1.561,0.512,3.384,1.502,4.161,2.822
			c1.126,1.912,1.104,4.186-1.5,5.488C362.078,148.059,361.592,148.807,360.984,149.398z"/>
		<path fill-rule="evenodd" clip-rule="evenodd" fill="#FFFFFF" stroke="#000000" stroke-width="2" stroke-miterlimit="10" d="
			M597.222,137.213c-0.321,2.389-0.519,3.852-0.724,5.381c-3.305-1.635-2.677,0.416-1.96,2.207c-0.398,0.266-0.65,0.533-0.747,0.484
			c-3.935-1.982-7.888,0.033-11.829-0.051c-4.21-0.09-8.442,0.277-12.634-0.016c-5.072-0.355-10.342,0.492-15.136-2.025
			c-0.3-0.158-0.651-0.227-0.984-0.314c-3.522-0.922-4.91-2.73-4.647-6.381c0.413-5.746,0.9-11.488,1.411-17.23
			c0.314-3.516,1.75-4.52,5.516-3.943c-1.084,6.449-1.895,12.936,0.557,19.24c0.377,0.971,1.846,2.164,2.805,2.16
			c9.444-0.041,18.887-0.416,28.33-0.467C590.464,136.24,593.751,136.865,597.222,137.213z"/>
		<path fill-rule="evenodd" clip-rule="evenodd" fill="#FFFFFF" stroke="#000000" stroke-width="2" stroke-miterlimit="10" d="
			M257.252,48.315c-2.437,2.293-2.936,0.334-3.021-1.182c-0.365-6.511-0.744-13.033-0.665-19.546
			c0.034-2.786,1.069-5.649,4.668-6.024c-0.573,6.271-1.135,12.324-1.678,18.381c-0.485,5.404,1.365,7.249,6.604,8.031
			c3.9,0.582,7.608,2.379,11.5,3.104c4.069,0.76,8.257,0.885,12.392,1.291c0.691,0.067,1.383,0.146,2.07,0.246
			c4.417,0.646,4.835,1.268,3.838,5.673c-0.127,0.563-0.263,1.122-0.474,2.027c-6.139,1.484-12.297,0.64-18.407-0.548
			c-3.58-0.695-7.081-1.788-10.625-2.68C259.291,56.042,257.504,53.171,257.252,48.315z"/>
		<path fill-rule="evenodd" clip-rule="evenodd" fill="#FFFFFF" stroke="#000000" stroke-width="2" stroke-miterlimit="10" d="
			M443.255,98.27c-0.047,2.457-0.313,4.936-0.099,7.371c0.617,6.986,1.429,13.957,2.162,20.932c0.024,0.229,0.015,0.463,0.042,0.693
			c0.199,1.611-0.067,4.291,0.695,4.627c1.966,0.865,4.407,1.01,6.623,0.871c6.286-0.396,12.553-1.436,18.826-1.424
			c1.81,0.004,3.614,2.709,5.548,4.279c-1.861,1.215-2.878,1.906-3.92,2.561c-3.831,2.404-8.256,2.662-12.503,2.758
			c-5.144,0.117-10.306-0.664-15.465-0.992c-2.773-0.174-6.031-5.455-5.604-8.16c0.703-4.445,1.01-8.979,1.121-13.48
			c0.146-5.852-0.125-11.709-0.055-17.562c0.011-0.949,0.853-1.891,1.313-2.834C442.379,98.027,442.815,98.148,443.255,98.27z"/>
		<path fill-rule="evenodd" clip-rule="evenodd" fill="#FFFFFF" stroke="#000000" stroke-width="2" stroke-miterlimit="10" d="
			M606.155,56.534c-0.316,0.068-0.808,0.177-1.468,0.318c0.26-2.851,0.272-5.664,0.888-8.34c0.226-0.981,1.874-1.637,2.874-2.441
			c0.847,1.35,2.73,3.141,2.373,3.979c-2.304,5.418,0.369,10.691,0.071,16.012c-0.074,1.308,1.069,2.75,1.862,3.999
			c0.269,0.426,1.176,0.62,1.794,0.622c5.072,0.015,10.157,0.15,15.218-0.132c5.068-0.283,10.108-1.065,15.173-1.501
			c1.423-0.121,2.886,0.211,4.328,0.335c0.173,0.351,0.342,0.701,0.513,1.053c-0.877,0.695-1.671,1.826-2.646,2.015
			c-5.321,1.027-10.69,1.786-16.029,2.727c-0.992,0.178-1.892,1.009-2.876,1.105c-1.8,0.18-3.634,0.004-5.451,0.041
			c-1.084,0.023-2.575-0.25-3.176,0.332c-2.911,2.83-5.71,1.846-8.63,0.219c-0.481-0.269-1.096-0.678-1.541-0.568
			c-3.79,0.914-3.892-1.958-4.114-4.225c-0.22-2.265,0.138-4.586,0.25-7.075L606.155,56.534z"/>
		<path fill-rule="evenodd" clip-rule="evenodd" fill="#FFFFFF" stroke="#000000" stroke-width="2" stroke-miterlimit="10" d="
			M555.045,63.602c3.558,0.661,6.333,1.187,9.113,1.691c4.35,0.791,8.699,1.6,13.061,2.34c2.774,0.471,5.558,0.932,8.355,1.212
			c3.855,0.385,7.729,0.597,11.7,0.892c-0.121,3.402-2.885,2.988-4.929,3.672c-6.36,2.125-12.399-0.788-18.598-1.096
			c-4.491-0.22-8.973-0.607-13.463-0.8c-0.853-0.036-2.399,0.355-2.491,0.794c-1.01,4.695-4.584,0.973-6.609,2.123
			c-0.917-2.02-2.47-3.99-2.626-6.069c-0.367-4.841-0.129-9.735,0.004-14.601c0.056-2.062,1.165-3.188,3.621-2.52
			C552.782,55.654,551.514,60.741,555.045,63.602z"/>
		<path fill-rule="evenodd" clip-rule="evenodd" fill="#FFFFFF" stroke="#000000" stroke-width="2" stroke-miterlimit="10" d="
			M626.946,108.641c-3.264,0.525-5.983,0.887-8.666,1.424c-1.646,0.332-3.279,0.824-4.846,1.438
			c-2.155,0.844-5.006-0.85-5.126-3.365c-0.191-3.98-0.191-7.971-0.233-11.957c-0.021-1.82,0.166-3.648,0.054-5.461
			c-0.309-4.918,0.141-5.496,5.305-5.858c0.265,5.057,0.527,10.108,0.794,15.157c0.013,0.232,0.048,0.461,0.046,0.689
			c-0.073,7.213-0.1,6.934,6.941,5.857c7.586-1.158,15.252-1.922,22.91-2.379c3.689-0.221,7.443,0.656,12.104,1.129
			c-2.802,1.316-2.151,6.355-6.803,4.027c-0.695,2.484-2.896,1.855-4.611,2.238c-0.339,0.076-0.687,0.299-1.004,0.256
			c-5.301-0.748-10.604-1.488-15.887-2.352C627.329,109.387,626.855,108.557,626.946,108.641z"/>
		<path fill-rule="evenodd" clip-rule="evenodd" fill="#FFFFFF" stroke="#000000" stroke-width="2" stroke-miterlimit="10" d="
			M555.832,80.479c-0.388,2.225,0.882,4.689-1.876,6.189c0.256,0.668,0.978,1.641,0.918,2.559c-0.354,5.553,3.285,7.861,7.705,8.719
			c5.81,1.125,11.502,2.229,16.903,4.861c2.707,1.318,5.929,1.592,9.102,2.387c-0.09,0.15,0.45-1.018,0.581-0.973
			c1.292,0.43,2.515,1.064,4.14,1.818c-3.165,3.418-6.4,1.473-9.275,1.58c-3.631,0.129-7.299-0.559-10.915-0.336
			c-6.178,0.383-11.823-1.498-17.539-3.301c-0.853-0.268-1.798-0.242-3.319-0.426c-3.434-4.053-1.697-9.477-1.434-14.734
			c0.08-1.604-0.072-3.217-0.014-4.822C550.946,80.291,551.778,79.678,555.832,80.479z"/>
		<path fill-rule="evenodd" clip-rule="evenodd" fill="#FFFFFF" stroke="#000000" stroke-width="2" stroke-miterlimit="10" d="
			M292.214,90.854c-0.531,3.832-2.316,5.152-5.465,5.221c-5.756,0.129-11.526,0.234-17.257,0.734
			c-6.453,0.564-12.649-0.691-16.582-5.6c-2.042-2.549-1.843-7.37-1.632-11.107c0.191-3.395,1.832-6.699,2.681-10.08
			c0.158-0.633-0.409-1.443-0.643-2.172c3.188,0.279,3.774,1.68,2.565,4.834c-1.751,4.572-1.644,9.535,0.384,13.712
			c1.44,2.967,4.516,5.57,8.822,4.826c1.292-0.223,2.713,0.451,4.069,0.428c5.599-0.096,11.197-0.291,16.794-0.475
			C287.953,91.111,289.953,90.973,292.214,90.854z"/>
		<path fill-rule="evenodd" clip-rule="evenodd" fill="#FFFFFF" stroke="#000000" stroke-width="2" stroke-miterlimit="10" d="
			M254.322,131.502c2.852-0.406,5.693-0.982,8.56-1.178c4.421-0.301,8.861-0.309,13.291-0.498c4.437-0.191,8.872-0.457,13.394-0.693
			c-0.037,1.852-0.058,2.904-0.085,4.193c-0.769,0.752-1.824,1.785-2.97,2.904c-0.178-0.139-0.75-0.961-1.248-0.916
			c-3.669,0.318-7.336,1.254-10.979,1.15c-6.122-0.176-12.64,2.029-18.205-2.291c-0.82-0.639-1.131-1.928-1.678-2.916
			C254.401,131.258,254.322,131.502,254.322,131.502z"/>
		<path fill-rule="evenodd" clip-rule="evenodd" fill="#FFFFFF" stroke="#000000" stroke-width="2" stroke-miterlimit="10" d="
			M254.322,131.502c0,0,0.079-0.244,0.08-0.244c-1.022,1.537-2.377,1.793-3.182,0.096c-1.257-2.648-2.098-5.496-3.115-8.258
			c3.624-2.576,1.662-6.523,1.675-9.561c0.015-3.398,2.329-5.791,2.32-8.947c-0.001-0.465,0.913-0.934,1.356-1.352
			c3.18,0.934,1.668,3.25,1.458,4.873C253.902,115.896,251.934,123.637,254.322,131.502z"/>
		<path fill-rule="evenodd" clip-rule="evenodd" fill="#FFFFFF" stroke="#000000" stroke-width="2" stroke-miterlimit="10" d="
			M433.366,38.401c-1.192-6.674,1.678-12.977,2.36-19.475c0.095-0.896,1.974-1.602,3.026-2.396c0.282,0.166,0.564,0.333,0.848,0.499
			c-1.684,7.178-3.368,14.355-5.052,21.533C434.155,38.508,433.76,38.456,433.366,38.401z"/>
		<path fill-rule="evenodd" clip-rule="evenodd" fill="#FFFFFF" stroke="#000000" stroke-width="2" stroke-miterlimit="10" d="
			M431.581,109.312c-1.152-1.066-3.006-2.004-3.045-3.012c-0.051-1.346,1.164-2.863,2.141-4.057c0.285-0.35,1.772-0.086,2.402,0.346
			c0.439,0.299,0.625,1.439,0.448,2.072C433.147,106.014,432.46,107.281,431.581,109.312z"/>
		<path fill-rule="evenodd" clip-rule="evenodd" fill="#FFFFFF" stroke="#000000" stroke-width="2" stroke-miterlimit="10" d="
			M301.062,115.762c0.494-0.936,1.301-1.828,1.428-2.812c0.944-7.299,2.223-14.6,2.498-21.936
			c0.485-12.905,3.331-25.705,1.759-38.714c-0.212-1.746,0.552-3.607,0.908-5.671c-0.746-0.016-1.406-0.028-2.554-0.052
			c4.047-3.082,0.75-7.156,2.252-10.283c0.58-1.209,2.299-1.87,3.499-2.783c0.444,1.163,1.247,2.316,1.275,3.487
			c0.191,7.923,0.57,15.864,0.211,23.771c-0.448,9.855-1.22,19.726-2.471,29.511c-0.974,7.631-2.901,15.141-4.384,22.707
			c-0.437,2.236-1.435,4.607-1.027,6.693c0.436,2.229,1.795,4.746,3.546,6.127c1.875,1.477,4.655,1.848,7.082,2.566
			c3.488,1.029,5.526,3.326,5.063,5.9c-0.399,2.219-4.396,4.654-7.188,4.021c-4.151-0.941-8.301-2.006-12.297-3.449
			c-1.163-0.418-2.658-2.408-2.522-3.492c0.474-3.762,1.623-7.438,2.456-11.158c0.237-1.057,0.274-2.158,0.523-4.262
			L301.062,115.762z"/>
	</g>
	<g>
		<path fill-rule="evenodd" clip-rule="evenodd" fill="#FFFF00" stroke="#000000" stroke-width="2" stroke-miterlimit="10" d="
			M492.019,145.982c0.748-42.039,1.485-83.4,2.241-125.903c4.562,1.954,8.27,3.51,11.951,5.127
			c4.042,1.772,8.062,3.595,12.087,5.409c5.49,2.476,11.061,4.789,16.435,7.498c4.614,2.326,4.542,7.359,5.154,11.473
			c0.658,4.416-0.033,9.031-0.14,13.561c-0.002,0.112-0.021,0.238-0.079,0.334c-2.771,4.814-5.421,9.703-8.383,14.399
			c-1.257,1.991-3.447,3.4-4.669,5.407c-0.682,1.119-0.889,3.402-0.197,4.326c2.591,3.463,5.812,6.445,8.465,9.861
			c2.752,3.541,6.509,7.115,7.286,11.16c0.856,4.473-0.079,9.613-3.683,13.824c-2.823,3.301-5.715,6.119-9.669,7.848
			c-0.38,0.166-0.883,0.799-0.992,0.723c-3.679-2.521-5.916,0.721-8.223,2.34c-6.241,4.373-13.386,6.609-20.329,9.361
			C496.814,143.707,494.437,144.893,492.019,145.982z M508.825,50.334c1.372-2.213,3.444-2.123,5.521-0.328
			c2.157,1.863,4.456,3.676,6.146,5.922c1.45,1.928,3.218,4.865,0.959,6.843c-2.545,2.229-4.495-0.643-6.318-2.294
			c-1.104-1.002-2.148-2.074-3.277-3.051c-0.976-0.844-2.031-1.596-3.916-3.059c-0.039,4.695-0.312,8.355-0.031,11.973
			c0.27,3.495,0.077,6.463-3.102,8.774c-0.59,0.431,0.062,2.569,0.141,3.918c0.971-0.209,2.12-0.153,2.881-0.671
			c4.564-3.099,9.1-6.252,13.522-9.549c2.376-1.772,4.922-3.565,6.645-5.898c1.87-2.527,3.146-5.723,0.23-8.627
			c-0.858-0.855-1.913-1.538-2.958-2.172c-2.191-1.331-3.235-3.75-4.985-5.342c-2.581-2.345-5.79-4.088-8.936-5.691
			c-2.479-1.266-5.265-1.934-8.09-2.93C505.31,42.639,507.04,46.432,508.825,50.334z M520.537,113.68
			c-3.494-3.334-6.749-6.436-10.753-10.258c-0.117,5.742-0.463,10.305-0.196,14.834c0.138,2.342-0.557,3.498-2.414,4.664
			c-1.075,0.674-1.673,2.113-2.485,3.211c0.154,0.365,0.308,0.73,0.462,1.094c1.464,0.053,3.249,0.672,4.337,0.061
			c6.009-3.385,11.91-6.969,17.72-10.684c4.127-2.637,4.711-6.119,1.484-9.846c-2.325-2.689-5.143-4.984-7.894-7.271
			c-3.535-2.939-7.319-5.588-10.809-8.576c-1.862-1.598-3.53-1.82-5.413-0.84c-0.814,4.719,7.176,4.447,4.401,10.209
			c3.554-1.721,6.138-1.225,8.329,1.18c2.538,2.781,5.107,5.531,7.934,8.59C523.336,111.52,521.84,112.676,520.537,113.68z"/>
		<path fill-rule="evenodd" clip-rule="evenodd" fill="#FFFF00" stroke="#000000" stroke-width="2" stroke-miterlimit="10" d="
			M215.867,11.572c3.159,0.548,8.46,0.472,12.805,2.473c4.981,2.296,9.673,5.902,13.474,9.906c4.796,5.05,7.733,11.146,9.229,18.437
			c1.219,5.946-0.228,10.229-2.542,15.08c-2.642,5.542-3.307,12.01-7.644,16.76c-2.774,3.036-5.582,6.082-8.678,8.772
			c-2.593,2.254-4.021,4.346-3.9,8.182c0.342,10.857,0.102,21.74-0.203,32.605c-0.16,5.676-0.594,6.074-5.993,4.004
			c-3.86-1.482-7.558-3.867-10.671-6.596c-1.345-1.178-1.255-4.23-1.436-6.461c-0.831-10.27-1.452-20.553-2.299-30.818
			c-0.515-6.252-0.835-12.576-2.081-18.697c-1.911-9.389-4.244-18.724-7.042-27.883c-0.937-3.068-1.512-6.638-4.669-9.023
			c-1.587-1.2-2.062-3.938-2.874-6.042c-0.163-0.421,0.256-1.36,0.688-1.677C198.583,15.807,206.068,13.399,215.867,11.572z
			 M214.427,69.75c2.215,0.146,4.246,0.644,6.144,0.332c4.782-0.781,8.348-2.729,11.027-7.588c3.553-6.442,6.95-12.311,5.776-20.139
			c-0.69-4.607-2.241-8.078-5.658-11.234c-2.797-2.584-5.896-2.864-9.194-2.807c-4.534,0.078-9.063,0.447-13.621,0.693
			c0.564,3.459,1.195,4.113,4.255,3.684c1.945-0.273,2.688,0.2,2.997,2.166c0.856,5.473,1.853,10.927,2.909,16.367
			c0.801,4.126,1.777,8.219,2.724,12.551c-2.118,0.635-3.86,1.162-5.606,1.676C213.58,66.216,213.382,67.796,214.427,69.75z"/>
		<path fill-rule="evenodd" clip-rule="evenodd" fill="#FFFF00" stroke="#000000" stroke-width="2" stroke-miterlimit="10" d="
			M295.562,116.258c-4.954,7.592-6.83,5.941-13.242,6.855c-5.352,0.762-10.74,1.268-16.092,2.037
			c-6.467,0.928-7.455,0.027-6.792-5.895c0.546-4.885,0.849-9.803,1.038-14.717c0.091-2.371,0.197-4.121,3.265-2.779
			c0.507,0.219,1.144,0.262,1.707,0.215c8.911-0.762,17.82-1.543,26.726-2.354c0.665-0.062,1.296-0.428,1.957-0.607
			c4.043-1.102,5.296,0.275,5.103,4.455c-0.186,4.064,0.353,8.158,0.573,12.24C300.169,115.818,295.196,116.15,295.562,116.258"/>
		<path fill-rule="evenodd" clip-rule="evenodd" fill="#FFFF00" stroke="#000000" stroke-width="2" stroke-miterlimit="10" d="
			M298.015,47.058c-1.758,2.701-3.776,2.142-6.412,1.222c-3.27-1.14-6.884-1.285-10.345-1.885c-3.031-0.523-6.048-1.139-9.087-1.604
			c-3.379-0.519-6.776-0.909-10.528-1.405c-0.219-4.064-0.512-8.349-0.659-12.637c-0.093-2.72,0.029-5.447,0.065-9.369
			c1.572-2.958,5.401-3.371,9.403-3.334c3.633,0.036,7.266,0.24,10.897,0.186c2.135-0.033,4.233,2.231,6.386,0.11
			c0.784,0.806,1.568,1.612,2.359,2.425c2.908-2.414,6.164-0.848,8.729,0.344c1.288,0.598,1.625,3.896,1.823,6.024
			c0.265,2.838-0.115,5.731-0.052,8.597c0.081,3.652,0.378,7.297,0.465,10.949c0.021,0.902-0.403,1.816-0.624,2.729
			C299.75,48.741,299.063,48.077,298.015,47.058z"/>
		<path fill-rule="evenodd" clip-rule="evenodd" fill="#FFFF00" stroke="#000000" stroke-width="2" stroke-miterlimit="10" d="
			M635.633,64.431c-1.79,0.333-3.532,0.821-5.299,0.954c-4.561,0.342-9.134,0.525-14.735,0.827
			c-0.212-3.939-0.583-8.143-0.598-12.347c-0.004-1.789,0.924-3.562,1.093-5.377c0.187-1.972-0.247-4.01,0.004-5.969
			c0.359-2.81,4.271-4.123,6.643-2.486c0.518,0.359,1.433,0.426,2.082,0.271c2.675-0.636,5.619-2.494,7.894-1.859
			c2.985,0.831,5.507-0.422,8.256-0.138c3.705,0.384,7.475,0.136,11.201,0.401c1.705,0.12,3.32,0.672,3.428,3.06
			c0.291,6.505,0.758,13.005,1.162,19.507c0.147,2.373-1.092,2.805-3.215,2.7c-2.312-0.114-4.646,0.308-6.973,0.366
			C642.965,64.429,639.354,64.407,635.633,64.431z"/>
		<path fill-rule="evenodd" clip-rule="evenodd" fill="#FFFF00" stroke="#000000" stroke-width="2" stroke-miterlimit="10" d="
			M618.596,102.092c-0.358-6.658-0.71-13.18-1.094-20.275c1.32-0.264,3.129-0.758,4.972-0.977
			c5.139-0.609,10.294-1.554,15.438-1.518c5.361,0.039,10.412-1.479,15.633-2.021c1.575-0.164,3.119-0.646,4.834-1.018
			c0.809,7.399,1.608,14.714,2.375,21.722C646.732,99.365,632.776,100.717,618.596,102.092z"/>
		<path fill-rule="evenodd" clip-rule="evenodd" fill="#FFFF00" stroke="#000000" stroke-width="2" stroke-miterlimit="10" d="
			M278.465,66.004c0.182-0.066,1.096-0.724,1.945-0.648c6.262,0.551,12.51,1.246,19.845,2.01c0.195,3.615,0.798,7.807,0.553,11.947
			c-0.351,5.957-0.617,5.863-6.886,6.101c-6.555,0.25-13.1,0.768-19.654,0.979c-3.686,0.117-7.384-0.146-11.076-0.238
			c-2.024-0.051-2.811-1.039-2.69-3.092c0.194-3.305,0.28-6.624,0.223-9.936c-0.033-2.004-0.506-3.997-0.612-6.005
			c-0.048-0.903,0.093-2.463,0.541-2.621c1.207-0.432,3.39-0.84,3.83-0.246c2.219,2.98,5.124,1.538,7.766,1.676
			C274.004,66.024,275.767,65.978,278.465,66.004z"/>
		<path fill-rule="evenodd" clip-rule="evenodd" fill="#FFFF00" stroke="#000000" stroke-width="2" stroke-miterlimit="10" d="
			M659.749,129.428c-1.26-0.795-1.121-0.648-2.337,0.494c-0.642,0.598-1.853,0.697-2.831,0.799c-0.803,0.086-1.64-0.158-2.46-0.258
			c-0.047,0.332-0.093,0.666-0.138,0.998c1.261,0.1,2.565,0.021,3.771,0.334c1.826,0.475,3.963,0.822,5.219,2.014
			c0.675,0.641-0.219,2.93-0.427,4.668c-5.741-0.922-10.834-1.615-15.874-2.592c-3.418-0.66-6.731-1.867-10.147-2.549
			c-2.172-0.436-4.708-1.053-6.606-0.336c-2.428,0.918-4.299-0.975-6.449-0.309c-0.308,0.094-0.687-0.086-1.027-0.059
			c-3.555,0.279-4.371-1.115-3.308-4.514c0.699-2.225,0.651-4.703,0.795-7.074c0.076-1.242-0.329-2.518-0.208-3.748
			c0.182-1.84,1.312-2.871,3.24-2.553c6.666,1.102,13.304,2.436,19.999,3.314c3.356,0.443,6.817,0.014,10.225,0.131
			c1.562,0.055,3.111,0.453,4.659,0.75c1.227,0.234,2.456,0.486,3.65,0.84c1.268,0.377,3.58,0.955,3.559,1.33
			c-0.119,1.984-0.703,3.98-1.392,5.877C661.331,127.898,660.418,128.604,659.749,129.428z"/>
		<path fill-rule="evenodd" clip-rule="evenodd" fill="#FFFF00" stroke="#000000" stroke-width="2" stroke-miterlimit="10" d="
			M596.348,42.764c0.384,7.139,0.746,13.867,1.142,21.197c-9.901-3.234-19.441-1.355-28.888-1.799
			c-3.785-0.177-7.517-1.513-10.686-2.195c-0.245-4.523-0.252-8.601-0.747-12.615c-0.388-3.131,1.325-3.932,3.593-3.461
			c4.969,1.031,9.597-1.102,14.428-1.084C582.285,42.833,589.38,42.782,596.348,42.764z"/>
		<path fill-rule="evenodd" clip-rule="evenodd" fill="#FFFF00" stroke="#000000" stroke-width="2" stroke-miterlimit="10" d="
			M558.218,111.848c2.584-0.139,5.813-1.086,8.499-0.262c3.31,1.016,6.316,1.201,9.729,1.059c6.138-0.254,12.33,0.246,18.471,0.785
			c5.192,0.455,6.094,1.938,5.054,7.01c-0.551,2.68-1.084,5.373-1.856,7.994c-0.222,0.76-1.208,1.803-1.899,1.846
			c-9.134,0.562-18.271,1.113-27.42,1.328c-2.65,0.061-5.358-0.859-7.967-1.594c-0.423-0.121-0.507-1.604-0.66-2.469
			c-0.061-0.346,0.283-0.984,0.166-1.062c-2.618-1.701-1.085-3.674-0.825-5.859C559.814,118.062,558.802,115.346,558.218,111.848z"
			/>
		<path fill-rule="evenodd" clip-rule="evenodd" fill="#FFFF00" stroke="#000000" stroke-width="2" stroke-miterlimit="10" d="
			M598.826,81.176c-0.222,6.228-0.438,12.33-0.687,19.412c-6.407-1.615-12.39-3.494-18.514-4.561
			c-6.33-1.104-12.797-1.42-20.091-2.17c0.839-3.92,2.913-7.756,1.772-9.548c-2.112-3.32-0.793-5.682-0.166-8.773
			C573.955,75.331,585.993,79.333,598.826,81.176z"/>
		<path fill-rule="evenodd" clip-rule="evenodd" fill="#FFFF00" stroke="#000000" stroke-width="2" stroke-miterlimit="10" d="
			M472.895,4.326c0.274,5.075,0.376,9.728,0.846,14.344c0.188,1.853,1.537,3.585,1.726,5.438c0.285,2.785-0.6,5.791,0.104,8.41
			c1.527,5.695,0.521,11.393,0.809,17.07c0.389,7.642,0.387,15.303,0.754,22.947c0.492,10.207,1.164,20.404,1.781,30.607
			c0.337,5.535,0.847,11.062,0.961,16.602c0.02,0.932-1.385,2.273-2.441,2.789c-7.961,3.898-16.444,5.189-25.244,4.666
			c-0.457-0.027-0.917,0.043-2.351,0.119c-0.214-3.365-0.266-6.697-0.676-9.986c-0.618-4.945-1.455-9.863-2.258-14.785
			c-0.616-3.789-1.491-7.545-1.887-11.352c-0.122-1.188,0.972-2.488,1.472-3.75c1.686-4.272,3.357-8.549,5.033-12.826
			c-0.28-0.318-0.561-0.635-0.841-0.952c-0.958,0.565-2.289,0.899-2.806,1.735c-1.87,3.034-3.545,6.199-5.15,9.387
			c-2.657,5.277-5.205,10.609-7.955,16.24c-4.34-8.371-8.447-16.3-12.556-24.224c-0.513,0.078-1.024,0.154-1.536,0.232
			c-0.104,1.501-0.625,3.123-0.237,4.484c1.352,4.732,3.655,9.273,4.393,14.072c0.786,5.111,0.541,10.463,0.127,15.66
			c-0.415,5.221-1.621,10.379-2.426,15.572c-0.603,3.895-0.947,7.84-1.82,11.67c-0.171,0.754-2.346,1.684-3.401,1.488
			c-4.278-0.801-8.521-1.883-12.701-3.109c-2.895-0.852-5.621-2.268-8.51-3.143c-3.261-0.99-2.627-3.926-2.601-5.871
			c0.06-4.24,0.914-8.479,1.564-12.701c0.316-2.053,1.3-4.062,1.295-6.094c-0.013-6.686-0.488-13.373-0.491-20.062
			c-0.001-3.914,0.695-7.824,0.821-11.744c0.145-4.494,0.017-8.995-0.014-13.492c-0.071-10.621-0.056-21.24-0.283-31.855
			c-0.09-4.219-0.966-8.418-1.048-12.636c-0.065-3.388,0.711-6.784,0.759-10.185c0.031-2.213-0.577-4.435-0.945-6.975
			c4.491-0.727,7.594,2.087,11.083,3.484c2.958,1.185,5.791,2.686,8.677,4.049c0.315,0.148,0.637,0.294,0.917,0.496
			c3.394,2.439,7.042,4.614,10.049,7.466c1.345,1.276,1.492,3.894,2.013,5.946c1.288,5.072,2.375,10.201,3.733,15.254
			c1.864,6.928,3.858,13.82,5.933,20.688c0.234,0.775,1.356,1.285,2.065,1.919c0.497-1.041,1.534-2.167,1.387-3.107
			c-0.396-2.522-1.022-5.091-2.062-7.415c-1.834-4.104-0.43-7.627,1.201-11.294c0.681-1.526,0.98-3.257,1.252-4.927
			c0.521-3.217,0.868-6.459,1.349-9.682c0.262-1.764,0.998-3.524,0.911-5.256c-0.183-3.578,1.987-4.424,4.796-5.438
			c6.158-2.225,12.162-4.876,18.227-7.365C468.688,6.117,470.671,5.262,472.895,4.326z"/>
		<path fill-rule="evenodd" clip-rule="evenodd" fill="#FFFF00" stroke="#000000" stroke-width="2" stroke-miterlimit="10" d="
			M190.317,64.277c1.278,3.024,2.573,6.042,3.827,9.074c0.611,1.477,1.321,2.943,1.684,4.487c0.899,3.832,1.758,7.683,2.365,11.57
			c0.314,2.002,0.055,4.096,0.055,6.146c0.003,5.045,0.339,10.119-0.083,15.129c-0.451,5.359-1.546,10.672-2.495,15.98
			c-0.623,3.484-1.485,6.924-2.242,10.383c-0.074,0.336-0.073,0.727-0.253,0.994c-3.212,4.723-6.405,9.459-9.687,14.135
			c-4.511,6.426-13.009,9.818-20.359,7.078c-3.868-1.441-7.499-4.4-10.355-7.49c-5.119-5.533-9.796-11.521-14.204-17.646
			c-2.082-2.895-2.887-6.672-4.668-9.822c-4.384-7.758-5.988-16.264-7.864-24.838c-1.468-6.711-1.093-13.314-0.971-19.921
			c0.096-5.203,1.584-10.386,2.513-15.566c0.85-4.738,1.26-9.636,2.8-14.144c2.073-6.071,4.986-11.862,7.655-17.721
			c1.308-2.87,3.227-5.497,4.257-8.447c2.014-5.767,7.415-9.206,13.71-8.239c0.903,0.141,1.84,0.412,2.718,0.297
			c5.449-0.717,8.986,2.536,11.981,6.189c6.355,7.75,10.133,16.906,13.626,26.211c1.793,4.777,4.151,9.342,6.215,14.018
			c0.26,0.59,0.283,1.287,0.416,1.932C190.746,64.136,190.532,64.208,190.317,64.277z M157.225,116.871
			c0.329-0.203,0.657-0.406,0.986-0.611c-0.133-2.459-0.797-5.031-0.298-7.354c1.488-6.924,2.23-13.807,0.625-20.764
			c-1.271-5.517-0.839-11.396-4.107-16.529c-1.057-1.66-0.854-4.291-0.742-6.451c0.053-1.021,1.072-2.512,1.982-2.817
			c0.821-0.276,2.628,0.48,3.059,1.285c1.424,2.659,2.479,5.525,3.572,8.353c5.629,14.55,5.706,29.335,1.673,44.242
			c-0.339,1.252-1.363,2.328-2.104,3.461c-1.653,2.531-3.329,5.049-4.995,7.57c0.428,0.457,0.855,0.914,1.284,1.371
			c1.168-0.652,2.72-1.029,3.438-2.012c2.837-3.893,4.89-8.029,5.848-12.988c1.965-10.178,3.315-20.232,0.603-30.434
			c-0.52-1.953-1.455-3.81-1.851-5.781c-1.667-8.281-4.02-16.31-8.837-23.36c-1.469-2.148-3.503-3.916-5.278-5.857
			c-0.273,0.186-0.548,0.369-0.822,0.555c0.053,0.969-0.283,2.282,0.22,2.848c2.992,3.369,0.922,6.214-0.662,9.158
			c-0.163,0.304-0.342,0.635-0.375,0.967c-0.969,9.832-1.923,19.665-2.859,29.501c-0.031,0.324,0.127,0.67,0.222,0.998
			c1.438,4.984,2.625,10.059,4.408,14.916C153.461,110.533,155.525,113.635,157.225,116.871z"/>
		<path fill-rule="evenodd" clip-rule="evenodd" fill="#FFFF00" stroke="#000000" stroke-width="2" stroke-miterlimit="10" d="
			M325.095,124.629c-5.794-1.16-11.136-2.229-17.206-3.443c1.934-10.041,4.066-19.695,5.577-29.445
			c1.027-6.629,1.243-13.39,1.713-20.099c0.376-5.382,0.871-10.777,0.801-16.162c-0.087-6.746-0.822-13.482-1.019-20.229
			c-0.074-2.57,0.399-5.202,1.009-7.713c0.148-0.605,1.85-1.217,2.799-1.162c1.734,0.098,3.422,0.866,5.161,1.046
			c4.038,0.413,8.097,0.618,12.142,0.97c0.727,0.064,1.874,0.236,2.069,0.686c1.166,2.7,2.159,5.479,3.118,8.262
			c1.439,4.176,2.802,8.375,4.197,12.565c0.309-0.021,0.62-0.04,0.929-0.059c0.145-1.383,0.323-2.761,0.427-4.145
			c0.198-2.647,0.083-5.36,0.661-7.919c0.229-1.014,1.955-1.691,2.999-2.523c0.761,0.965,2.17,1.929,2.169,2.892
			c0,3.899-0.108,7.861-0.849,11.669c-0.355,1.826-2.211,3.361-3.387,5.029c-0.521,0.02-1.043,0.037-1.565,0.055
			c3.094,7.395,6.19,14.789,9.285,22.182c0.614-0.147,1.228-0.294,1.842-0.441c-0.208-1.419-0.096-2.986-0.675-4.231
			c-4.164-8.935-2.677-18.125-1.558-27.346c0.575-4.749,0.815-9.541,1.193-14.153c1.562-0.256,3.292-0.688,5.04-0.77
			c1.089-0.053,2.218,0.374,3.304,0.678c1.288,0.363,2.521,1.02,3.827,1.199c2.056,0.281,3.941,0.324,5.4,2.377
			c0.685,0.962,2.639,1.249,4.067,1.416c3.758,0.437,5.268,2.43,4.583,6.092c-0.202,1.084,0.308,2.281,0.279,3.42
			c-0.062,2.629-0.229,5.257-0.405,7.881c-0.222,3.287-0.647,6.568-0.712,9.857c-0.091,4.662,0.299,9.34,0.043,13.984
			c-0.19,3.492-1.732,6.991-1.513,10.414c0.536,8.32-2.075,16.086-3.519,24.037c-1.351,7.438-3.344,14.76-5.128,22.115
			c-0.263,1.088-0.935,2.078-1.418,3.113c-4.294-0.23-8.517-0.418-12.733-0.695c-4.348-0.285-6.019-2.053-6.353-6.215
			c-0.756-9.414-2.548-18.621-6.33-27.326c-2.644-6.088-5.417-12.123-8.378-18.062c-0.457-0.916-2.23-1.176-3.395-1.74
			c0.126,1.068-0.084,2.347,0.434,3.169c3.439,5.461,1.742,10.846-0.252,16.104c-2.272,5.986-4.988,11.805-7.393,17.744
			C325.71,121.348,325.465,123.162,325.095,124.629z"/>
		<path fill-rule="evenodd" clip-rule="evenodd" fill="#FFFF00" stroke="#000000" stroke-width="2" stroke-miterlimit="10" d="
			M234.012,49.064c-0.595,2.858-1.519,7.776-5.639,11.063c-1.032,0.824-3.067,0.389-4.642,0.531
			c0.105-1.562,0.028-3.166,0.379-4.672c0.222-0.949,1.167-1.705,1.64-2.624c3.007-5.839,1.89-8.391-3.775-12.21
			c-1.629-1.099-3.389-2.338-4.398-3.946c-1.669-2.66-0.587-4.886,2.404-4.625c2.619,0.229,5.34,1.485,7.621,2.919
			C231.721,38.088,234.133,41.938,234.012,49.064z"/>
	</g>
	<g>
		<path fill-rule="evenodd" clip-rule="evenodd" fill="#00A0C6" stroke="#000000" stroke-width="2" stroke-miterlimit="10" d="
			M156.111,161.031c-0.854,1.354-1.462,3.488-2.724,3.994c-1.25,0.502-3.301-0.367-4.746-1.121
			c-2.412-1.262-5.024-2.535-6.833-4.475c-3.772-4.041-7.74-8.15-10.413-12.91c-3.624-6.461-5.578-13.859-9.235-20.295
			c-3.483-6.125-4.303-12.748-5.698-19.312c-1.57-7.391-1.791-14.914-1.067-22.417c0.727-7.534,1.189-15.162,2.781-22.528
			c1.756-8.128,4.731-15.985,7.046-23.998c1.571-5.438,3.35-10.758,7.16-15.087c1.291-1.467,2.922-2.635,4.397-3.939
			c0.354,0.239,0.709,0.479,1.063,0.719c-0.505,1.651-0.817,3.396-1.559,4.935c-1.209,2.507-2.997,4.763-4.01,7.331
			c-2.792,7.082-5.783,14.138-7.819,21.447c-2.898,10.406-4.206,21.074-2.997,31.964c0.539,4.857-0.01,9.863,0.781,14.66
			c0.967,5.863,2.643,11.631,4.346,17.34c1.686,5.65,3.156,11.455,7.613,15.854c0.75,0.744,0.675,2.27,1.126,3.375
			c2.021,4.965,5.089,9.129,9.03,12.818c2.894,2.711,5.16,6.082,7.837,9.041C153.003,159.324,154.254,159.824,156.111,161.031z"/>
		<path fill-rule="evenodd" clip-rule="evenodd" fill="#00A0C6" stroke="#000000" stroke-width="2" stroke-miterlimit="10" d="
			M388.773,137.227c1.369-0.07,2.233-0.375,2.846-0.105c2.863,1.26,5.635,2.727,8.491,4.006c0.795,0.357,1.79,0.24,2.646,0.496
			c1.544,0.465,3.039,1.102,4.584,1.562c1.178,0.348,2.527,0.303,3.575,0.855c1.167,0.615,2.079,1.711,3.099,2.598
			c-1.146,0.871-2.481,2.658-3.407,2.467c-6.308-1.314-12.555-2.963-18.769-4.691c-1.933-0.535-3.95-1.359-5.476-2.604
			c-1.214-0.992-2.422-2.809-2.46-4.291c-0.207-7.711-0.191-15.436,0.049-23.145c0.227-7.318,0.837-14.621,1.258-21.934
			c0.546-9.474,1.182-18.942,1.567-28.422c0.309-7.547,0.438-15.106,0.383-22.659c-0.039-4.872-0.503-9.746-0.916-14.605
			c-0.061-0.707-0.898-1.35-1.352-1.989c1.757-1.259,3.481-2.492,5.438-3.893c0.29,0.872,0.78,1.606,0.727,2.3
			c-0.575,7.463,0.401,14.785,1.803,22.086c0.142,0.732-0.336,1.566-0.34,2.354c-0.018,4.281,0.126,8.562,0.004,12.838
			c-0.068,2.392-0.777,4.771-0.787,7.158c-0.019,4.794,0.436,9.594,0.341,14.382c-0.097,4.93-0.708,9.848-0.921,14.778
			c-0.176,4.137,0.161,8.307-0.198,12.418c-0.647,7.395-1.713,14.748-2.45,22.135C388.312,133.312,388.675,135.359,388.773,137.227z
			"/>
		<path fill-rule="evenodd" clip-rule="evenodd" fill="#00A0C6" stroke="#000000" stroke-width="2" stroke-miterlimit="10" d="
			M489.772,31.924c-0.253,1.764-0.613,3.516-0.731,5.287c-0.124,1.881,0.026,3.776-0.019,5.664
			c-0.172,7.767-0.424,15.533-0.525,23.301c-0.03,2.143,0.446,4.288,0.533,6.438c0.061,1.526-0.111,3.065-0.23,4.596
			c-0.557,7.089-1.338,14.167-1.645,21.266c-0.387,8.973-0.422,17.961-0.552,26.943c-0.075,5.199,0.071,10.406-0.128,15.6
			c-0.055,1.451-0.789,2.982-1.557,4.275c-1.129,1.9-0.314,4.074,1.95,5.719c0.991,0.717,1.428,2.205,2.115,3.344
			c0.343-0.148,0.683-0.297,1.024-0.445c-0.203-0.852-0.405-1.701-0.578-2.426c2.338-0.514,4.947-1.85,7.153-1.359
			c2.341,0.516,1.915-1.609,3.246-2.066c3.907-1.34,7.5-3.58,11.25-5.398c1.697-0.822,3.474-1.477,5.272-2.285
			c1.768-0.709,3.536-1.414,5.304-2.123c0.309,0.289,0.617,0.578,0.926,0.867c-0.621,0.838-1.139,1.789-1.888,2.494
			c-2.168,2.033-4.439,3.951-6.645,5.947c-0.761,0.686-1.31,1.711-2.176,2.15c-7.69,3.879-15.859,6.412-24.411,7.107
			c-1.412,0.115-4.369-2.947-4.428-4.617c-0.39-11.502-1.849-23.004,0.153-34.557c0.742-4.287-0.316-8.863-0.283-13.305
			c0.055-7.35,0.38-14.697,0.477-22.043c0.031-2.331-0.492-4.671-0.41-6.995c0.062-1.696,0.97-3.363,1.031-5.059
			c0.322-8.822,1.014-17.682,0.474-26.458c-0.233-3.787,0.646-6.89,1.771-10.151c0.314-0.906,1.439-1.531,2.189-2.285
			C488.883,31.542,489.327,31.733,489.772,31.924z"/>
		<path fill-rule="evenodd" clip-rule="evenodd" fill="#00A0C6" stroke="#000000" stroke-width="2" stroke-miterlimit="10" d="
			M189.873,27.643c4.034,0.699,3.639,4.363,4.617,7.012c1.034,2.799,1.79,5.711,2.489,8.617c0.906,3.766,1.596,7.58,2.451,11.357
			c0.899,3.969,1.954,7.902,2.81,11.881c0.828,3.842,1.594,7.703,2.188,11.588c0.43,2.805,0.61,5.656,0.771,8.496
			c0.33,5.824,0.574,11.654,0.847,17.484c0.235,5.031-0.229,10.23,0.929,15.039c0.795,3.299,3.803,6.086,5.893,9.049
			c2.316,3.283,5.99,3.674,9.532,4.357c2.417,0.469,5.328,0.4,5.334,4.062c-5.43,3.812-11.334,1.742-16.376-2.021
			c-1.52-1.135-2.562-2.912-3.819-4.396c-0.445-0.527-0.832-1.473-1.328-1.531c-4.596-0.549-4.678-3.779-4.636-7.279
			c0.072-6.105,0.215-12.223-0.064-18.318c-0.223-4.846-0.859-9.689-1.614-14.486c-1.881-11.967-3.621-23.972-6.048-35.832
			c-1.244-6.072-3.557-11.986-5.938-17.744C186.517,31.61,187.147,29.5,189.873,27.643z"/>
		<path fill-rule="evenodd" clip-rule="evenodd" fill="#00A0C6" stroke="#000000" stroke-width="2" stroke-miterlimit="10" d="
			M610.568,145.545c-0.37,0.732-0.686,1.355-1.301,2.576c-0.419-1.766-0.681-2.867-1.097-4.621c-0.88,1.131-1.359,1.746-2.542,3.268
			c0.112-4.4,0.072-7.893,0.324-11.363c0.265-3.635,0.675-7.271,1.28-10.863c0.438-2.609,1.176-5.273,5.048-4.971
			c-0.015,3.525-0.042,6.918-0.04,10.309c0,5.201,2.087,7.096,7.054,7.559c4.779,0.443,9.495,1.57,14.249,2.334
			c5.623,0.9,11.269,1.67,16.88,2.637c1.448,0.25,2.8,1.039,4.204,1.557c2.178,0.803,3.402,2.521,2.567,4.572
			c-0.577,1.418-2.192,2.871-3.666,3.385c-5.217,1.816-10.44,1.645-15.874,0.102c-4.223-1.201-8.831-0.984-13.211-1.74
			c-1.644-0.287-3.858-2.615-4.55-2.146c-2.529,1.713-3.778-0.807-5.606-1.072C613.09,146.891,611.977,146.145,610.568,145.545z"/>
		<path fill-rule="evenodd" clip-rule="evenodd" fill="#00A0C6" stroke="#000000" stroke-width="2" stroke-miterlimit="10" d="
			M360.984,149.398c-5.135-1.391-9.902-3.043-14.808-3.865c-2.774-0.465-4.039-2.168-5.573-3.9
			c-4.466-5.045-4.296-11.162-4.408-17.398c-0.109-6.102-1.158-12.182-1.599-18.287c-0.129-1.791,0.043-3.799,0.778-5.381
			c0.436-0.941,2.55-2.021,3.367-1.695c2.379,0.961,2.9,3.197,2.654,5.746c-0.208,2.162-0.102,4.385,0.156,6.543
			c0.051,0.426,1.421,0.697,2.031,0.973c0.123,2.344,0.296,4.703,0.36,7.066c0.108,4.041,0.296,8.09,0.164,12.125
			c-0.086,2.645,0.746,4.025,3.435,4.627c4.236,0.949,8.438,2.104,12.563,3.453c1.561,0.512,3.384,1.502,4.161,2.822
			c1.126,1.912,1.104,4.186-1.5,5.488C362.078,148.059,361.592,148.807,360.984,149.398z"/>
		<path fill-rule="evenodd" clip-rule="evenodd" fill="#00A0C6" stroke="#000000" stroke-width="2" stroke-miterlimit="10" d="
			M597.222,137.213c-0.321,2.389-0.519,3.852-0.724,5.381c-3.305-1.635-2.677,0.416-1.96,2.207c-0.398,0.266-0.65,0.533-0.747,0.484
			c-3.935-1.982-7.888,0.033-11.829-0.051c-4.21-0.09-8.442,0.277-12.634-0.016c-5.072-0.355-10.342,0.492-15.136-2.025
			c-0.3-0.158-0.651-0.227-0.984-0.314c-3.522-0.922-4.91-2.73-4.647-6.381c0.413-5.746,0.9-11.488,1.411-17.23
			c0.314-3.516,1.75-4.52,5.516-3.943c-1.084,6.449-1.895,12.936,0.557,19.24c0.377,0.971,1.846,2.164,2.805,2.16
			c9.444-0.041,18.887-0.416,28.33-0.467C590.464,136.24,593.751,136.865,597.222,137.213z"/>
		<path fill-rule="evenodd" clip-rule="evenodd" fill="#00A0C6" stroke="#000000" stroke-width="2" stroke-miterlimit="10" d="
			M257.252,48.315c-2.437,2.293-2.936,0.334-3.021-1.182c-0.365-6.511-0.744-13.033-0.665-19.546
			c0.034-2.787,1.069-5.649,4.668-6.024c-0.574,6.271-1.135,12.324-1.678,18.381c-0.485,5.404,1.365,7.249,6.604,8.031
			c3.9,0.582,7.608,2.379,11.5,3.104c4.069,0.76,8.257,0.885,12.392,1.291c0.691,0.067,1.383,0.146,2.07,0.246
			c4.417,0.646,4.835,1.268,3.838,5.673c-0.127,0.563-0.263,1.122-0.474,2.027c-6.139,1.484-12.297,0.64-18.407-0.548
			c-3.58-0.695-7.081-1.788-10.625-2.68C259.292,56.042,257.505,53.171,257.252,48.315z"/>
		<path fill-rule="evenodd" clip-rule="evenodd" fill="#00A0C6" stroke="#000000" stroke-width="2" stroke-miterlimit="10" d="
			M443.256,98.27c-0.047,2.457-0.314,4.936-0.099,7.371c0.616,6.986,1.428,13.957,2.161,20.932c0.024,0.229,0.015,0.463,0.042,0.693
			c0.198,1.611-0.068,4.291,0.694,4.627c1.966,0.865,4.408,1.01,6.623,0.871c6.287-0.396,12.553-1.436,18.826-1.424
			c1.812,0.004,3.615,2.709,5.548,4.279c-1.861,1.215-2.877,1.906-3.918,2.561c-3.833,2.404-8.257,2.662-12.504,2.758
			c-5.144,0.117-10.307-0.664-15.466-0.992c-2.772-0.174-6.03-5.455-5.603-8.16c0.702-4.445,1.01-8.979,1.12-13.48
			c0.147-5.852-0.125-11.709-0.054-17.562c0.011-0.949,0.853-1.891,1.312-2.834C442.379,98.027,442.815,98.148,443.256,98.27z"/>
		<path fill-rule="evenodd" clip-rule="evenodd" fill="#00A0C6" stroke="#000000" stroke-width="2" stroke-miterlimit="10" d="
			M606.155,56.534c-0.316,0.068-0.808,0.177-1.468,0.318c0.26-2.851,0.272-5.664,0.888-8.34c0.226-0.981,1.874-1.637,2.874-2.441
			c0.847,1.35,2.73,3.141,2.373,3.979c-2.304,5.418,0.369,10.691,0.071,16.012c-0.074,1.308,1.069,2.75,1.862,3.999
			c0.269,0.426,1.176,0.62,1.794,0.622c5.072,0.015,10.157,0.15,15.218-0.132c5.068-0.283,10.108-1.065,15.173-1.501
			c1.423-0.121,2.886,0.211,4.328,0.335c0.173,0.351,0.342,0.701,0.513,1.053c-0.877,0.695-1.671,1.826-2.646,2.015
			c-5.321,1.027-10.69,1.786-16.029,2.727c-0.992,0.178-1.892,1.009-2.876,1.105c-1.8,0.18-3.634,0.004-5.451,0.041
			c-1.084,0.023-2.575-0.25-3.176,0.332c-2.911,2.83-5.71,1.846-8.63,0.219c-0.481-0.269-1.096-0.678-1.541-0.568
			c-3.79,0.914-3.892-1.958-4.114-4.225c-0.22-2.265,0.138-4.586,0.25-7.075L606.155,56.534z"/>
		<path fill-rule="evenodd" clip-rule="evenodd" fill="#00A0C6" stroke="#000000" stroke-width="2" stroke-miterlimit="10" d="
			M555.045,63.602c3.558,0.661,6.333,1.187,9.113,1.691c4.35,0.791,8.699,1.6,13.061,2.34c2.774,0.471,5.558,0.932,8.355,1.212
			c3.855,0.385,7.729,0.597,11.7,0.892c-0.121,3.402-2.885,2.988-4.929,3.672c-6.36,2.125-12.399-0.788-18.598-1.096
			c-4.491-0.22-8.973-0.607-13.463-0.8c-0.853-0.036-2.399,0.355-2.491,0.794c-1.01,4.695-4.584,0.973-6.609,2.123
			c-0.917-2.02-2.47-3.99-2.626-6.069c-0.367-4.841-0.129-9.735,0.004-14.601c0.056-2.062,1.165-3.188,3.621-2.52
			C552.782,55.654,551.514,60.741,555.045,63.602z"/>
		<path fill-rule="evenodd" clip-rule="evenodd" fill="#00A0C6" stroke="#000000" stroke-width="2" stroke-miterlimit="10" d="
			M626.946,108.641c-3.264,0.525-5.983,0.887-8.666,1.424c-1.646,0.332-3.279,0.824-4.846,1.438
			c-2.155,0.844-5.006-0.85-5.126-3.365c-0.191-3.98-0.191-7.971-0.233-11.957c-0.021-1.82,0.166-3.648,0.054-5.461
			c-0.309-4.918,0.141-5.496,5.305-5.858c0.265,5.057,0.527,10.108,0.794,15.157c0.013,0.232,0.048,0.461,0.046,0.689
			c-0.073,7.213-0.1,6.934,6.941,5.857c7.586-1.158,15.252-1.922,22.91-2.379c3.689-0.221,7.443,0.656,12.104,1.129
			c-2.802,1.316-2.151,6.355-6.803,4.027c-0.695,2.484-2.896,1.855-4.611,2.238c-0.339,0.076-0.687,0.299-1.004,0.256
			c-5.301-0.748-10.604-1.488-15.887-2.352C627.329,109.387,626.855,108.557,626.946,108.641z"/>
		<path fill-rule="evenodd" clip-rule="evenodd" fill="#00A0C6" stroke="#000000" stroke-width="2" stroke-miterlimit="10" d="
			M555.832,80.479c-0.388,2.225,0.882,4.689-1.876,6.189c0.256,0.668,0.978,1.641,0.918,2.559c-0.354,5.553,3.285,7.861,7.705,8.719
			c5.81,1.125,11.502,2.229,16.903,4.861c2.707,1.318,5.929,1.592,9.102,2.387c-0.09,0.15,0.45-1.018,0.581-0.973
			c1.292,0.43,2.515,1.064,4.14,1.818c-3.165,3.418-6.4,1.473-9.275,1.58c-3.631,0.129-7.299-0.559-10.915-0.336
			c-6.178,0.383-11.823-1.498-17.539-3.301c-0.853-0.268-1.798-0.242-3.319-0.426c-3.434-4.053-1.697-9.477-1.434-14.734
			c0.08-1.604-0.072-3.217-0.014-4.822C550.946,80.291,551.778,79.678,555.832,80.479z"/>
		<path fill-rule="evenodd" clip-rule="evenodd" fill="#00A0C6" stroke="#000000" stroke-width="2" stroke-miterlimit="10" d="
			M292.214,90.854c-0.531,3.832-2.316,5.152-5.465,5.221c-5.756,0.129-11.526,0.234-17.257,0.734
			c-6.453,0.564-12.649-0.691-16.582-5.6c-2.042-2.549-1.843-7.37-1.632-11.107c0.191-3.396,1.832-6.699,2.681-10.08
			c0.158-0.633-0.409-1.443-0.643-2.172c3.188,0.279,3.774,1.68,2.565,4.834c-1.751,4.572-1.644,9.535,0.384,13.712
			c1.44,2.967,4.516,5.57,8.822,4.826c1.292-0.223,2.713,0.451,4.069,0.428c5.599-0.096,11.197-0.291,16.794-0.475
			C287.954,91.111,289.954,90.973,292.214,90.854z"/>
		<path fill-rule="evenodd" clip-rule="evenodd" fill="#00A0C6" stroke="#000000" stroke-width="2" stroke-miterlimit="10" d="
			M254.323,131.502c2.852-0.406,5.693-0.982,8.56-1.178c4.421-0.301,8.861-0.309,13.291-0.498c4.437-0.191,8.872-0.457,13.394-0.693
			c-0.037,1.852-0.058,2.904-0.085,4.193c-0.769,0.752-1.824,1.785-2.97,2.904c-0.178-0.139-0.75-0.961-1.248-0.916
			c-3.669,0.318-7.336,1.254-10.979,1.15c-6.121-0.176-12.64,2.029-18.205-2.291c-0.82-0.639-1.131-1.928-1.678-2.916
			C254.401,131.258,254.323,131.502,254.323,131.502z"/>
		<path fill-rule="evenodd" clip-rule="evenodd" fill="#00A0C6" stroke="#000000" stroke-width="2" stroke-miterlimit="10" d="
			M254.323,131.502c0,0,0.079-0.244,0.08-0.244c-1.022,1.537-2.377,1.793-3.182,0.096c-1.257-2.648-2.098-5.496-3.115-8.258
			c3.624-2.576,1.662-6.523,1.675-9.561c0.015-3.398,2.329-5.791,2.32-8.947c-0.001-0.467,0.913-0.934,1.355-1.352
			c3.18,0.934,1.668,3.25,1.458,4.873C253.903,115.896,251.934,123.637,254.323,131.502z"/>
		<path fill-rule="evenodd" clip-rule="evenodd" fill="#00A0C6" stroke="#000000" stroke-width="2" stroke-miterlimit="10" d="
			M433.367,38.401c-1.193-6.674,1.677-12.977,2.359-19.475c0.096-0.896,1.974-1.602,3.027-2.396
			c0.281,0.166,0.563,0.333,0.848,0.498c-1.685,7.179-3.369,14.356-5.052,21.534C434.155,38.508,433.761,38.455,433.367,38.401z"/>
		<path fill-rule="evenodd" clip-rule="evenodd" fill="#00A0C6" stroke="#000000" stroke-width="2" stroke-miterlimit="10" d="
			M431.582,109.312c-1.153-1.066-3.007-2.004-3.046-3.012c-0.051-1.346,1.164-2.863,2.142-4.057c0.285-0.35,1.771-0.086,2.402,0.346
			c0.438,0.299,0.625,1.439,0.447,2.072C433.147,106.014,432.461,107.281,431.582,109.312z"/>
		<path fill-rule="evenodd" clip-rule="evenodd" fill="#00A0C6" stroke="#000000" stroke-width="2" stroke-miterlimit="10" d="
			M301.062,115.762c0.493-0.936,1.301-1.828,1.428-2.812c0.944-7.299,2.223-14.6,2.498-21.936
			c0.485-12.905,3.332-25.705,1.759-38.714c-0.211-1.746,0.552-3.607,0.908-5.671c-0.746-0.016-1.406-0.028-2.554-0.052
			c4.047-3.082,0.751-7.156,2.252-10.283c0.58-1.209,2.298-1.87,3.498-2.783c0.444,1.163,1.247,2.316,1.275,3.487
			c0.191,7.923,0.57,15.864,0.211,23.771c-0.448,9.855-1.22,19.726-2.47,29.511c-0.974,7.631-2.901,15.141-4.384,22.707
			c-0.437,2.236-1.435,4.607-1.027,6.693c0.436,2.229,1.794,4.746,3.546,6.127c1.875,1.477,4.655,1.848,7.082,2.566
			c3.488,1.029,5.527,3.326,5.063,5.9c-0.399,2.219-4.396,4.654-7.188,4.021c-4.151-0.941-8.3-2.006-12.296-3.449
			c-1.164-0.418-2.658-2.408-2.522-3.492c0.473-3.762,1.623-7.438,2.456-11.158c0.236-1.057,0.274-2.158,0.523-4.262
			L301.062,115.762z"/>
	</g>
</g>
<g id="Layer_2">
	<g>
		<g>
			<defs>
				<polyline id="SVGID_34_" points="700,64.216 714.5,103.215 729,64.216 				"/>
			</defs>
			<clipPath id="SVGID_35_">
				<use xlink:href="#SVGID_34_"  overflow="visible"/>
			</clipPath>
		</g>
	</g>
	<g>
		<g>
			<defs>
				<polyline id="SVGID_36_" points="700,64.216 714.5,103.215 729,64.216 				"/>
			</defs>
			<clipPath id="SVGID_37_">
				<use xlink:href="#SVGID_36_"  overflow="visible"/>
			</clipPath>
		</g>
		<g>
			<defs>
				<polyline id="SVGID_38_" points="700,64.216 714.5,103.215 729,64.216 				"/>
			</defs>
			<defs>
				<polyline id="SVGID_39_" points="783,64.216 757,64.216 757,84.967 757,103.215 783,103.215 				"/>
			</defs>
			<clipPath id="SVGID_40_">
				<use xlink:href="#SVGID_38_"  overflow="visible"/>
			</clipPath>
			<clipPath id="SVGID_41_" clip-path="url(#SVGID_40_)">
				<use xlink:href="#SVGID_39_"  overflow="visible"/>
			</clipPath>
		</g>
	</g>
	<g>
		<g>
			<defs>
				<polyline id="SVGID_42_" points="700,64.216 714.5,103.215 729,64.216 				"/>
			</defs>
			<clipPath id="SVGID_43_">
				<use xlink:href="#SVGID_42_"  overflow="visible"/>
			</clipPath>
		</g>
		<g>
			<defs>
				<polyline id="SVGID_44_" points="700,64.216 714.5,103.215 729,64.216 				"/>
			</defs>
			<defs>
				<polyline id="SVGID_45_" points="783,64.216 757,64.216 757,84.967 757,103.215 783,103.215 				"/>
			</defs>
			<clipPath id="SVGID_46_">
				<use xlink:href="#SVGID_44_"  overflow="visible"/>
			</clipPath>
			<clipPath id="SVGID_47_" clip-path="url(#SVGID_46_)">
				<use xlink:href="#SVGID_45_"  overflow="visible"/>
			</clipPath>
		</g>
		<g>
			<defs>
				<polyline id="SVGID_48_" points="700,64.216 714.5,103.215 729,64.216 				"/>
			</defs>
			<defs>
				<polyline id="SVGID_49_" points="783,64.216 757,64.216 757,84.967 757,103.215 783,103.215 				"/>
			</defs>
			<defs>
				<line id="SVGID_50_" x1="758.429" y1="83.716" x2="781.588" y2="83.716"/>
			</defs>
			<clipPath id="SVGID_51_">
				<use xlink:href="#SVGID_48_"  overflow="visible"/>
			</clipPath>
			<clipPath id="SVGID_52_" clip-path="url(#SVGID_51_)">
				<use xlink:href="#SVGID_49_"  overflow="visible"/>
			</clipPath>
			<clipPath id="SVGID_53_" clip-path="url(#SVGID_52_)">
				<use xlink:href="#SVGID_50_"  overflow="visible"/>
			</clipPath>
		</g>
	</g>
	<title>logo2 copy 2</title>
	<desc>Created with Sketch.</desc>
	<polyline id="SVGID_10_" fill="none" stroke="#FFFFFF" stroke-width="6" stroke-miterlimit="10" points="700,64.216 714.5,103.215 
		729,64.216 	"/>
	<polyline id="SVGID_9_" fill="none" stroke="#FFFFFF" stroke-width="6" stroke-miterlimit="10" points="783,64.216 757,64.216 
		757,84.967 757,103.215 783,103.215 	"/>
	
		<line id="SVGID_8_" fill="none" stroke="#FFFFFF" stroke-width="6" stroke-miterlimit="10" x1="758.429" y1="83.716" x2="781.588" y2="83.716"/>
	<path id="SVGID_7_" fill="none" stroke="#FFFFFF" stroke-width="6" stroke-miterlimit="10" d="M731.074,4.707
		C692.548,10.466,663,43.695,663,83.824c0,40.104,29.508,73.313,67.997,79.104"/>
	<path id="SVGID_6_" fill="none" stroke="#FFFFFF" stroke-width="6" stroke-miterlimit="10" d="M754.998,162.93
		c38.491-5.789,68.002-39,68.002-79.106c0-40.123-29.537-73.347-68.055-79.114"/>
</g>
</svg>
