<?xml version="1.0" encoding="utf-8"?>
<!-- Generator: Adobe Illustrator 16.0.0, SVG Export Plug-In . SVG Version: 6.00 Build 0)  -->
<!DOCTYPE svg PUBLIC "-//W3C//DTD SVG 1.1//EN" "http://www.w3.org/Graphics/SVG/1.1/DTD/svg11.dtd">
<svg version="1.1" xmlns="http://www.w3.org/2000/svg" xmlns:xlink="http://www.w3.org/1999/xlink" x="0px" y="0px" width="782px"
	 height="169px" viewBox="0 0 782 169" enable-background="new 0 0 782 169" xml:space="preserve">
<g id="Layer_1" display="none">
	<g display="inline">
		<polyline fill="none" stroke="#A8CFEF" stroke-miterlimit="10" points="125.69,50.128 151.931,50.128 181.685,70.419 
			478.299,70.419 		"/>
		<polyline fill="none" stroke="#A8CFEF" stroke-miterlimit="10" points="103.516,75.67 127.554,75.67 157.308,95.962 
			467.028,95.962 		"/>
		<polyline fill="none" stroke="#A8CFEF" stroke-miterlimit="10" points="39.762,99.794 92.7,99.794 110.915,87.778 462.556,87.778 
					"/>
		<polyline fill="none" stroke="#A8CFEF" stroke-miterlimit="10" points="82.851,113.185 137.99,113.185 180.024,79.89 
			466.989,79.89 		"/>
		<g>
			<g opacity="0.3">
				<g>
					<defs>
						<rect id="SVGID_6_" x="5.188" y="84.064" width="35.518" height="31.459"/>
					</defs>
					<clipPath id="SVGID_7_">
						<use xlink:href="#SVGID_6_"  overflow="visible"/>
					</clipPath>
					<polygon clip-path="url(#SVGID_7_)" fill="#80B5E5" points="32.693,115.248 13.201,115.248 5.496,99.795 13.201,84.34 
						32.693,84.34 40.399,99.795 					"/>
					<polygon clip-path="url(#SVGID_7_)" fill="none" stroke="#0564AE" stroke-width="0.5" stroke-miterlimit="10" points="
						32.693,115.248 13.201,115.248 5.496,99.795 13.201,84.34 32.693,84.34 40.399,99.795 					"/>
				</g>
			</g>
			<g opacity="0.3">
				<g>
					<defs>
						<rect id="SVGID_8_" x="68.84" y="59.872" width="35.518" height="31.458"/>
					</defs>
					<clipPath id="SVGID_9_">
						<use xlink:href="#SVGID_8_"  overflow="visible"/>
					</clipPath>
					<polygon clip-path="url(#SVGID_9_)" fill="#80B5E5" points="96.345,91.056 76.853,91.056 69.148,75.602 76.853,60.147 
						96.345,60.147 104.051,75.602 					"/>
					<polygon clip-path="url(#SVGID_9_)" fill="none" stroke="#0564AE" stroke-width="0.5" stroke-miterlimit="10" points="
						96.345,91.056 76.853,91.056 69.148,75.602 76.853,60.147 96.345,60.147 104.051,75.602 					"/>
				</g>
			</g>
			<g opacity="0.3">
				<g>
					<defs>
						<rect id="SVGID_10_" x="96.893" y="36.907" width="28.978" height="25.668"/>
					</defs>
					<clipPath id="SVGID_11_">
						<use xlink:href="#SVGID_10_"  overflow="visible"/>
					</clipPath>
					<polygon clip-path="url(#SVGID_11_)" fill="#80B5E5" points="119.301,62.3 103.461,62.3 97.2,49.742 103.461,37.183 
						119.301,37.183 125.562,49.742 					"/>
					<polygon clip-path="url(#SVGID_11_)" fill="none" stroke="#0564AE" stroke-width="0.5" stroke-miterlimit="10" points="
						119.301,62.3 103.461,62.3 97.2,49.742 103.461,37.183 119.301,37.183 125.562,49.742 					"/>
				</g>
			</g>
			<g opacity="0.3">
				<g>
					<defs>
						<rect id="SVGID_12_" x="53.963" y="101.302" width="28.978" height="25.668"/>
					</defs>
					<clipPath id="SVGID_13_">
						<use xlink:href="#SVGID_12_"  overflow="visible"/>
					</clipPath>
					<polygon clip-path="url(#SVGID_13_)" fill="#80B5E5" points="76.372,126.694 60.532,126.694 54.271,114.135 60.532,101.577 
						76.372,101.577 82.633,114.135 					"/>
					<polygon clip-path="url(#SVGID_13_)" fill="none" stroke="#0564AE" stroke-width="0.5" stroke-miterlimit="10" points="
						76.372,126.694 60.532,126.694 54.271,114.135 60.532,101.577 76.372,101.577 82.633,114.135 					"/>
				</g>
			</g>
			<g opacity="0.3">
				<g>
					<defs>
						<rect id="SVGID_14_" x="46.88" y="73.331" width="21.879" height="19.382"/>
					</defs>
					<clipPath id="SVGID_15_">
						<use xlink:href="#SVGID_14_"  overflow="visible"/>
					</clipPath>
					<polygon clip-path="url(#SVGID_15_)" fill="#80B5E5" points="63.757,92.438 51.881,92.438 47.188,83.022 51.881,73.607 
						63.757,73.607 68.452,83.022 					"/>
					<polygon clip-path="url(#SVGID_15_)" fill="none" stroke="#0564AE" stroke-width="0.5" stroke-miterlimit="10" points="
						63.757,92.438 51.881,92.438 47.188,83.022 51.881,73.607 63.757,73.607 68.452,83.022 					"/>
				</g>
			</g>
			<g opacity="0.3">
				<g>
					<defs>
						<rect id="SVGID_16_" x="117.076" y="66.553" width="21.879" height="19.382"/>
					</defs>
					<clipPath id="SVGID_17_">
						<use xlink:href="#SVGID_16_"  overflow="visible"/>
					</clipPath>
					<polygon clip-path="url(#SVGID_17_)" fill="#80B5E5" points="133.953,85.66 122.077,85.66 117.383,76.244 122.077,66.829 
						133.953,66.829 138.648,76.244 					"/>
					<polygon clip-path="url(#SVGID_17_)" fill="none" stroke="#0564AE" stroke-width="0.5" stroke-miterlimit="10" points="
						133.953,85.66 122.077,85.66 117.383,76.244 122.077,66.829 133.953,66.829 138.648,76.244 					"/>
				</g>
			</g>
			<g opacity="0.3">
				<g>
					<defs>
						<rect id="SVGID_18_" x="107.169" y="94.073" width="17.351" height="15.368"/>
					</defs>
					<clipPath id="SVGID_19_">
						<use xlink:href="#SVGID_18_"  overflow="visible"/>
					</clipPath>
					<polygon clip-path="url(#SVGID_19_)" fill="#80B5E5" points="120.518,109.166 111.17,109.166 107.477,101.758 111.17,94.347 
						120.518,94.347 124.211,101.758 					"/>
					<polygon clip-path="url(#SVGID_19_)" fill="none" stroke="#0564AE" stroke-width="0.5" stroke-miterlimit="10" points="
						120.518,109.166 111.17,109.166 107.477,101.758 111.17,94.347 120.518,94.347 124.211,101.758 					"/>
				</g>
			</g>
			<path d="M530.78,88.986c0.024,12.902-10.416,23.379-23.318,23.405c-12.901,0.023-39.398-10.388-39.424-23.29
				c-0.022-12.901,26.437-23.409,39.338-23.434C520.278,65.646,530.757,76.085,530.78,88.986"/>
			<path fill="none" stroke="#000000" stroke-miterlimit="10" d="M530.78,88.986c0.024,12.902-10.416,23.379-23.318,23.405
				c-12.901,0.023-39.398-10.388-39.424-23.29c-0.022-12.901,26.437-23.409,39.338-23.434
				C520.278,65.646,530.757,76.085,530.78,88.986z"/>
			<path d="M567.282,86.256c0,12.901-10.459,23.359-23.361,23.359S520.56,99.157,520.56,86.256
				c0-12.902,10.459-23.362,23.361-23.362S567.282,73.354,567.282,86.256"/>
			<circle fill="none" stroke="#000000" stroke-miterlimit="10" cx="543.921" cy="86.256" r="23.361"/>
			<path d="M589.016,86.256c0,8.927-7.237,16.164-16.165,16.164c-8.927,0-16.164-7.237-16.164-16.164
				c0-8.928,7.237-16.165,16.164-16.165C581.778,70.091,589.016,77.328,589.016,86.256"/>
			<circle fill="none" stroke="#000000" stroke-miterlimit="10" cx="572.851" cy="86.256" r="16.165"/>
			<path fill="#914F00" d="M580.526,91.223c-3.218,1.643-9.365-3.967-11.007-7.185c-1.641-3.217-0.362-7.156,2.855-8.797
				c3.217-1.641,7.156-0.363,8.798,2.855C582.813,81.313,583.743,89.582,580.526,91.223"/>
			<path fill="none" stroke="#D4B400" stroke-miterlimit="10" d="M580.526,91.223c-3.218,1.643-9.365-3.967-11.007-7.185
				c-1.641-3.217-0.362-7.156,2.855-8.797c3.217-1.641,7.156-0.363,8.798,2.855C582.813,81.313,583.743,89.582,580.526,91.223z"/>
			<path fill="#FFFFFF" d="M578.445,81.81c-1.08,0.55-3.141-1.331-3.69-2.409c-0.551-1.079-0.122-2.4,0.956-2.95
				c1.08-0.551,2.4-0.121,2.951,0.958S579.524,81.259,578.445,81.81"/>
			<path d="M578.979,74.263c0,0,6.424-9.678,11.68-10.179c5.257-0.5,24.529,1.168,24.529,1.168l-2.336,3.921
				c0,0-17.382-4.495-23.111-3.42c-2.967,0.557-9.692,8.51-9.692,8.51H578.979z"/>
			<path fill="#7FC8FF" d="M543.921,62.389h-84.425c0,0,26.46,22.329,32.8,22.434c6.339,0.104,46.596-12.99,46.596-12.99
				L543.921,62.389z"/>
			<path fill="none" stroke="#000000" stroke-width="0.75" stroke-miterlimit="10" d="M543.921,62.389h-84.425
				c0,0,26.46,22.329,32.8,22.434c6.339,0.104,46.596-12.99,46.596-12.99L543.921,62.389z"/>
		</g>
		<text transform="matrix(1 0 0 1 120.1924 129.0801)"><tspan x="0" y="0" fill="#8C8C8C" font-family="'Arial-BoldMT'" font-size="15.4106">MODE</tspan><tspan x="46.231" y="0" fill="#8C8C8C" font-family="'Arial-BoldMT'" font-size="15.4106">L</tspan><tspan x="55.368" y="0" fill="#8C8C8C" font-family="'Arial-BoldMT'" font-size="15.4106"> BASED ENGINEERING ENVIRONMENT</tspan></text>
		<g>
			<g opacity="0.3">
				<g>
					<defs>
						<rect id="SVGID_20_" x="142.943" y="43.858" width="17.351" height="15.37"/>
					</defs>
					<clipPath id="SVGID_21_">
						<use xlink:href="#SVGID_20_"  overflow="visible"/>
					</clipPath>
					<polygon clip-path="url(#SVGID_21_)" fill="#80B5E5" points="156.292,58.954 146.945,58.954 143.251,51.543 146.945,44.133 
						156.292,44.133 159.986,51.543 					"/>
					<polygon clip-path="url(#SVGID_21_)" fill="none" stroke="#0564AE" stroke-width="0.5" stroke-miterlimit="10" points="
						156.292,58.954 146.945,58.954 143.251,51.543 146.945,44.133 156.292,44.133 159.986,51.543 					"/>
				</g>
			</g>
			<g opacity="0.3">
				<g>
					<defs>
						<rect id="SVGID_22_" x="148.758" y="65.921" width="17.35" height="15.37"/>
					</defs>
					<clipPath id="SVGID_23_">
						<use xlink:href="#SVGID_22_"  overflow="visible"/>
					</clipPath>
					<polygon clip-path="url(#SVGID_23_)" fill="#80B5E5" points="162.106,81.017 152.76,81.017 149.065,73.606 152.76,66.196 
						162.106,66.196 165.8,73.606 					"/>
					<polygon clip-path="url(#SVGID_23_)" fill="none" stroke="#0564AE" stroke-width="0.5" stroke-miterlimit="10" points="
						162.106,81.017 152.76,81.017 149.065,73.606 152.76,66.196 162.106,66.196 165.8,73.606 					"/>
				</g>
			</g>
			<g opacity="0.3">
				<g>
					<defs>
						<rect id="SVGID_24_" x="453.88" y="93.893" width="17.351" height="15.368"/>
					</defs>
					<clipPath id="SVGID_25_">
						<use xlink:href="#SVGID_24_"  overflow="visible"/>
					</clipPath>
					<polygon clip-path="url(#SVGID_25_)" fill="#80B5E5" points="467.229,108.985 457.882,108.985 454.188,101.577 457.882,94.166 
						467.229,94.166 470.924,101.577 					"/>
					<polygon clip-path="url(#SVGID_25_)" fill="none" stroke="#0564AE" stroke-width="0.5" stroke-miterlimit="10" points="
						467.229,108.985 457.882,108.985 454.188,101.577 457.882,94.166 467.229,94.166 470.924,101.577 					"/>
				</g>
			</g>
			<g opacity="0.3">
				<g>
					<defs>
						<rect id="SVGID_26_" x="445.514" y="77.974" width="17.35" height="15.371"/>
					</defs>
					<clipPath id="SVGID_27_">
						<use xlink:href="#SVGID_26_"  overflow="visible"/>
					</clipPath>
					<polygon clip-path="url(#SVGID_27_)" fill="#80B5E5" points="458.861,93.07 449.515,93.07 445.821,85.66 449.515,78.25 
						458.861,78.25 462.556,85.66 					"/>
					<polygon clip-path="url(#SVGID_27_)" fill="none" stroke="#0564AE" stroke-width="0.5" stroke-miterlimit="10" points="
						458.861,93.07 449.515,93.07 445.821,85.66 449.515,78.25 458.861,78.25 462.556,85.66 					"/>
				</g>
			</g>
			<g opacity="0.3">
				<g>
					<defs>
						<rect id="SVGID_28_" x="428.916" y="92.109" width="17.351" height="15.369"/>
					</defs>
					<clipPath id="SVGID_29_">
						<use xlink:href="#SVGID_28_"  overflow="visible"/>
					</clipPath>
					<polygon clip-path="url(#SVGID_29_)" fill="#80B5E5" points="442.266,107.203 432.918,107.203 429.224,99.794 432.918,92.385 
						442.266,92.385 445.959,99.794 					"/>
					<polygon clip-path="url(#SVGID_29_)" fill="none" stroke="#0564AE" stroke-width="0.5" stroke-miterlimit="10" points="
						442.266,107.203 432.918,107.203 429.224,99.794 432.918,92.385 442.266,92.385 445.959,99.794 					"/>
				</g>
			</g>
			<g opacity="0.3">
				<g>
					<defs>
						<rect id="SVGID_30_" x="389.541" y="83.396" width="17.35" height="15.37"/>
					</defs>
					<clipPath id="SVGID_31_">
						<use xlink:href="#SVGID_30_"  overflow="visible"/>
					</clipPath>
					<polygon clip-path="url(#SVGID_31_)" fill="#80B5E5" points="402.889,98.491 393.542,98.491 389.848,91.08 393.542,83.67 
						402.889,83.67 406.583,91.08 					"/>
					<polygon clip-path="url(#SVGID_31_)" fill="none" stroke="#0564AE" stroke-width="0.5" stroke-miterlimit="10" points="
						402.889,98.491 393.542,98.491 389.848,91.08 393.542,83.67 402.889,83.67 406.583,91.08 					"/>
				</g>
			</g>
			<g opacity="0.3">
				<g>
					<defs>
						<rect id="SVGID_32_" x="469.487" y="104.834" width="9.369" height="8.303"/>
					</defs>
					<clipPath id="SVGID_33_">
						<use xlink:href="#SVGID_32_"  overflow="visible"/>
					</clipPath>
					<polygon clip-path="url(#SVGID_33_)" fill="#80B5E5" points="476.616,112.862 471.727,112.862 469.795,108.985 
						471.727,105.109 476.616,105.109 478.549,108.985 					"/>
					<polygon clip-path="url(#SVGID_33_)" fill="none" stroke="#0564AE" stroke-width="0.5" stroke-miterlimit="10" points="
						476.616,112.862 471.727,112.862 469.795,108.985 471.727,105.109 476.616,105.109 478.549,108.985 					"/>
				</g>
			</g>
			<g opacity="0.3">
				<g>
					<defs>
						<rect id="SVGID_34_" x="415.876" y="101.154" width="13.656" height="12.099"/>
					</defs>
					<clipPath id="SVGID_35_">
						<use xlink:href="#SVGID_34_"  overflow="visible"/>
					</clipPath>
					<polygon clip-path="url(#SVGID_35_)" fill="#80B5E5" points="426.345,112.979 419.063,112.979 416.184,107.203 
						419.063,101.431 426.345,101.431 429.224,107.203 					"/>
					<polygon clip-path="url(#SVGID_35_)" fill="none" stroke="#0564AE" stroke-width="0.5" stroke-miterlimit="10" points="
						426.345,112.979 419.063,112.979 416.184,107.203 419.063,101.431 426.345,101.431 429.224,107.203 					"/>
				</g>
			</g>
			<polygon fill="#ACD3EF" points="474.564,91.591 467.282,91.591 464.402,85.815 467.282,80.042 474.564,80.042 477.443,85.815 			
				"/>
			<polygon fill="none" stroke="#439AD6" stroke-width="0.5" stroke-miterlimit="10" points="474.564,91.591 467.282,91.591 
				464.402,85.815 467.282,80.042 474.564,80.042 477.443,85.815 			"/>
			<polygon fill="#ACD3EF" points="476.38,101.378 472.739,101.378 471.299,98.491 472.739,95.604 476.38,95.604 477.82,98.491 			
				"/>
			<polygon fill="none" stroke="#439AD6" stroke-width="0.5" stroke-miterlimit="10" points="476.38,101.378 472.739,101.378 
				471.299,98.491 472.739,95.604 476.38,95.604 477.82,98.491 			"/>
			<polygon fill="#ACD3EF" points="483.302,95.369 479.659,95.369 478.221,92.482 479.659,89.595 483.302,89.595 484.741,92.482 			
				"/>
			<polygon fill="none" stroke="#439AD6" stroke-width="0.5" stroke-miterlimit="10" points="483.302,95.369 479.659,95.369 
				478.221,92.482 479.659,89.595 483.302,89.595 484.741,92.482 			"/>
			<polygon fill="#ACD3EF" points="487.387,108.985 483.744,108.985 482.305,106.099 483.744,103.213 487.387,103.213 
				488.826,106.099 			"/>
			<polygon fill="none" stroke="#439AD6" stroke-width="0.5" stroke-miterlimit="10" points="487.387,108.985 483.744,108.985 
				482.305,106.099 483.744,103.213 487.387,103.213 488.826,106.099 			"/>
		</g>
		<g>
			<path fill="#D4B400" stroke="#FFFFFF" stroke-width="2" stroke-miterlimit="10" d="M152.582,59.844
				c-1.047-1.919-2.371-3.432-3.969-4.537c-1.602-1.104-3.564-1.657-5.89-1.657c-2.269,0-4.333,0.653-6.194,1.962
				c-1.862,1.309-3.2,3.332-4.013,6.064l-15.095,51.302h17.711l5.498-20.329c0.873-3.315,1.628-6.237,2.269-8.768
				c0.64-2.53,1.191-4.958,1.658-7.285c0.464,0.99,0.944,2.007,1.44,3.054c0.493,1.047,1.075,2.196,1.745,3.447
				c0.668,1.251,1.409,2.66,2.225,4.231c0.813,1.57,1.746,3.346,2.792,5.321l7.852,14.745c0.756,1.456,1.527,2.604,2.313,3.446
				c0.785,0.843,1.584,1.499,2.398,1.963c0.815,0.465,1.687,0.77,2.618,0.916c0.93,0.145,1.948,0.22,3.055,0.22
				c1.104,0,2.122-0.075,3.053-0.22c0.929-0.146,1.802-0.451,2.616-0.916c0.815-0.464,1.615-1.12,2.4-1.963
				c0.786-0.843,1.557-1.99,2.313-3.446l7.853-14.656c1.976-3.781,3.577-6.908,4.798-9.381c1.222-2.471,2.326-4.724,3.316-6.761
				c0.464,2.385,1.017,4.828,1.658,7.329c0.639,2.5,1.424,5.409,2.355,8.724l5.497,20.329h17.973l-14.746-51.302
				c-0.814-2.733-2.138-4.755-3.969-6.064c-1.833-1.309-3.882-1.962-6.151-1.962c-2.386,0-4.378,0.567-5.978,1.7
				c-1.601,1.134-2.922,2.633-3.969,4.494l-9.335,16.578c-1.28,2.268-2.4,4.246-3.359,5.932c-0.96,1.688-1.803,3.214-2.531,4.58
				c-0.728,1.368-1.367,2.589-1.918,3.665c-0.554,1.077-1.062,2.139-1.527,3.186c-0.524-1.047-1.062-2.123-1.615-3.229
				c-0.554-1.105-1.192-2.326-1.918-3.665c-0.729-1.339-1.571-2.864-2.531-4.581c-0.96-1.714-2.081-3.708-3.36-5.976L152.582,59.844
				z"/>
		</g>
		<g>
			<path stroke="#D4B400" stroke-width="2" stroke-miterlimit="10" d="M283.55,89.943c1.977,0,3.402,0.335,4.275,1.004
				c0.873,0.668,1.309,1.643,1.309,2.923c0,1.338-0.436,2.354-1.309,3.054c-0.873,0.697-2.298,1.048-4.275,1.048h-33.242v-8.028
				H283.55z M300.957,81.437c0.958-0.668,1.802-1.512,2.53-2.53c0.727-1.018,1.322-2.195,1.789-3.533
				c0.464-1.338,0.698-2.88,0.698-4.625c0-2.675-0.54-5.018-1.613-7.024c-1.079-2.007-2.618-3.692-4.625-5.059
				c-2.008-1.367-4.422-2.385-7.242-3.055c-2.822-0.668-5.977-1.004-9.467-1.004h-38.651L232.16,69.789h51.651
				c1.279,0,2.444,0.262,3.491,0.786c1.046,0.523,1.569,1.513,1.569,2.966c0,1.514-0.509,2.546-1.526,3.099
				c-1.019,0.554-2.196,0.829-3.534,0.829H232.16v35.508h51.303c4.595,0,8.419-0.437,11.473-1.307
				c3.054-0.873,5.482-2.066,7.285-3.577c1.803-1.514,3.083-3.303,3.84-5.366c0.755-2.064,1.135-4.319,1.135-6.762
				c0-3.491-0.889-6.34-2.662-8.55c-1.775-2.211-3.941-3.694-6.5-4.45C299.022,82.613,299.997,82.105,300.957,81.437z"/>
			<polygon stroke="#D4B400" stroke-width="2" stroke-miterlimit="10" points="334.416,97.971 334.416,90.031 370.274,90.031 
				380.657,76.768 334.416,76.768 334.416,69.788 372.193,69.788 383.885,54.606 316.268,54.606 316.268,112.976 372.457,112.976 
				384.061,97.971 			"/>
			<polygon stroke="#D4B400" stroke-width="2" stroke-miterlimit="10" points="408.402,97.971 408.402,90.031 444.262,90.031 
				454.645,76.768 408.402,76.768 408.402,69.788 446.18,69.788 457.871,54.606 390.255,54.606 390.255,112.976 446.443,112.976 
				458.048,97.971 			"/>
			<polygon points="466.224,87.71 462.583,87.71 461.143,84.823 462.583,81.936 466.224,81.936 467.663,84.823 			"/>
			<polygon fill="none" stroke="#000000" stroke-miterlimit="10" points="466.224,87.71 462.583,87.71 461.143,84.823 
				462.583,81.936 466.224,81.936 467.663,84.823 			"/>
			<polygon points="469.484,79.098 465.842,79.098 464.402,76.21 465.842,73.323 469.484,73.323 470.924,76.21 			"/>
			<polygon fill="none" stroke="#000000" stroke-miterlimit="10" points="469.484,79.098 465.842,79.098 464.402,76.21 
				465.842,73.323 469.484,73.323 470.924,76.21 			"/>
			<polygon points="459.602,95.271 456.801,95.271 455.693,93.051 456.801,90.83 459.602,90.83 460.709,93.051 			"/>
			<polygon fill="none" stroke="#000000" stroke-miterlimit="10" points="459.602,95.271 456.801,95.271 455.693,93.051 
				456.801,90.83 459.602,90.83 460.709,93.051 			"/>
			<polygon points="474.139,90.598 470.498,90.598 469.058,87.71 470.498,84.823 474.139,84.823 475.579,87.71 			"/>
			<polygon fill="none" stroke="#000000" stroke-miterlimit="10" points="474.139,90.598 470.498,90.598 469.058,87.71 
				470.498,84.823 474.139,84.823 475.579,87.71 			"/>
			<polygon points="449.867,96.387 447.067,96.387 445.96,94.167 447.067,91.945 449.867,91.945 450.975,94.167 			"/>
			<polygon fill="none" stroke="#000000" stroke-miterlimit="10" points="449.867,96.387 447.067,96.387 445.96,94.167 
				447.067,91.945 449.867,91.945 450.975,94.167 			"/>
			<polygon points="476.979,98.759 474.179,98.759 473.071,96.538 474.179,94.316 476.979,94.316 478.086,96.538 			"/>
			<polygon fill="none" stroke="#000000" stroke-miterlimit="10" points="476.979,98.759 474.179,98.759 473.071,96.538 
				474.179,94.316 476.979,94.316 478.086,96.538 			"/>
			<polygon points="476.979,83.056 474.179,83.056 473.071,80.836 474.179,78.614 476.979,78.614 478.086,80.836 			"/>
			<polygon fill="none" stroke="#000000" stroke-miterlimit="10" points="476.979,83.056 474.179,83.056 473.071,80.836 
				474.179,78.614 476.979,78.614 478.086,80.836 			"/>
			<polygon points="468.429,104.641 465.628,104.641 464.521,102.421 465.628,100.199 468.429,100.199 469.536,102.421 			"/>
			<polygon fill="none" stroke="#000000" stroke-miterlimit="10" points="468.429,104.641 465.628,104.641 464.521,102.421 
				465.628,100.199 468.429,100.199 469.536,102.421 			"/>
			<polygon points="478.151,106.616 474.511,106.616 473.07,103.729 474.511,100.842 478.151,100.842 479.591,103.729 			"/>
			<polygon fill="none" stroke="#000000" stroke-miterlimit="10" points="478.151,106.616 474.511,106.616 473.07,103.729 
				474.511,100.842 478.151,100.842 479.591,103.729 			"/>
			<polygon fill="#ACD3EF" points="490.674,99.07 488.317,99.07 487.387,97.202 488.317,95.333 490.674,95.333 491.605,97.202 			
				"/>
			<polygon fill="none" stroke="#439AD6" stroke-width="0.5" stroke-miterlimit="10" points="490.674,99.07 488.317,99.07 
				487.387,97.202 488.317,95.333 490.674,95.333 491.605,97.202 			"/>
			<polygon fill="#ACD3EF" points="482.969,86.961 480.612,86.961 479.681,85.094 480.612,83.225 482.969,83.225 483.9,85.094 			
				"/>
			<polygon fill="none" stroke="#439AD6" stroke-width="0.5" stroke-miterlimit="10" points="482.969,86.961 480.612,86.961 
				479.681,85.094 480.612,83.225 482.969,83.225 483.9,85.094 			"/>
			<polygon points="483.839,95.835 481.039,95.835 479.932,93.615 481.039,91.393 483.839,91.393 484.946,93.615 			"/>
			<polygon fill="none" stroke="#000000" stroke-miterlimit="10" points="483.839,95.835 481.039,95.835 479.932,93.615 
				481.039,91.393 483.839,91.393 484.946,93.615 			"/>
			<polygon points="465.773,97.371 464.086,97.371 463.42,96.033 464.086,94.696 465.773,94.696 466.44,96.033 			"/>
			<polygon fill="none" stroke="#000000" stroke-miterlimit="10" points="465.773,97.371 464.086,97.371 463.42,96.033 
				464.086,94.696 465.773,94.696 466.44,96.033 			"/>
			<polygon points="456.968,86.363 455.279,86.363 454.614,85.025 455.279,83.689 456.968,83.689 457.635,85.025 			"/>
			<polygon fill="none" stroke="#000000" stroke-miterlimit="10" points="456.968,86.363 455.279,86.363 454.614,85.025 
				455.279,83.689 456.968,83.689 457.635,85.025 			"/>
			<polygon points="440.456,96.271 438.769,96.271 438.103,94.933 438.769,93.596 440.456,93.596 441.123,94.933 			"/>
			<polygon fill="none" stroke="#000000" stroke-miterlimit="10" points="440.456,96.271 438.769,96.271 438.103,94.933 
				438.769,93.596 440.456,93.596 441.123,94.933 			"/>
		</g>
	</g>
</g>
<g id="Layer_2">
	<g>
		<defs>
			<polyline id="SVGID_36_" points="651.67,64.897 666.17,103.896 680.67,64.897 			"/>
		</defs>
		<clipPath id="SVGID_37_">
			<use xlink:href="#SVGID_36_"  overflow="visible"/>
		</clipPath>
	</g>
	<g>
		<defs>
			<polyline id="SVGID_38_" points="651.67,64.897 666.17,103.896 680.67,64.897 			"/>
		</defs>
		<defs>
			<polyline id="SVGID_39_" points="734.67,64.897 708.67,64.897 708.67,85.648 708.67,103.896 734.67,103.896 			"/>
		</defs>
		<clipPath id="SVGID_40_">
			<use xlink:href="#SVGID_38_"  overflow="visible"/>
		</clipPath>
		<clipPath id="SVGID_41_" clip-path="url(#SVGID_40_)">
			<use xlink:href="#SVGID_39_"  overflow="visible"/>
		</clipPath>
	</g>
	<g>
		<defs>
			<polyline id="SVGID_42_" points="651.67,64.897 666.17,103.896 680.67,64.897 			"/>
		</defs>
		<defs>
			<polyline id="SVGID_43_" points="734.67,64.897 708.67,64.897 708.67,85.648 708.67,103.896 734.67,103.896 			"/>
		</defs>
		<defs>
			<line id="SVGID_44_" x1="710.099" y1="84.397" x2="733.258" y2="84.397"/>
		</defs>
		<clipPath id="SVGID_45_">
			<use xlink:href="#SVGID_42_"  overflow="visible"/>
		</clipPath>
		<clipPath id="SVGID_46_" clip-path="url(#SVGID_45_)">
			<use xlink:href="#SVGID_43_"  overflow="visible"/>
		</clipPath>
		<clipPath id="SVGID_47_" clip-path="url(#SVGID_46_)">
			<use xlink:href="#SVGID_44_"  overflow="visible"/>
		</clipPath>
	</g>
	<g>
		<defs>
			<polyline id="SVGID_48_" points="651.67,64.897 666.17,103.896 680.67,64.897 			"/>
		</defs>
		<defs>
			<polyline id="SVGID_49_" points="734.67,64.897 708.67,64.897 708.67,85.648 708.67,103.896 734.67,103.896 			"/>
		</defs>
		<defs>
			<line id="SVGID_50_" x1="710.099" y1="84.397" x2="733.258" y2="84.397"/>
		</defs>
		<defs>
			<path id="SVGID_51_" d="M682.744,5.388c-38.526,5.759-68.074,38.988-68.074,79.117c0,40.104,29.508,73.313,67.997,79.104"/>
		</defs>
		<clipPath id="SVGID_52_">
			<use xlink:href="#SVGID_48_"  overflow="visible"/>
		</clipPath>
		<clipPath id="SVGID_53_" clip-path="url(#SVGID_52_)">
			<use xlink:href="#SVGID_49_"  overflow="visible"/>
		</clipPath>
		<clipPath id="SVGID_54_" clip-path="url(#SVGID_53_)">
			<use xlink:href="#SVGID_50_"  overflow="visible"/>
		</clipPath>
		<clipPath id="SVGID_55_" clip-path="url(#SVGID_54_)">
			<use xlink:href="#SVGID_51_"  overflow="visible"/>
		</clipPath>
	</g>
	<title>logo2 copy 2</title>
	<desc>Created with Sketch.</desc>
	<g>
		<polyline id="SVGID_1_" fill="none" stroke="#FFFFFF" stroke-width="3" stroke-miterlimit="10" points="651.67,64.897 
			666.17,103.896 680.67,64.897 		"/>
	</g>
	<g>
		<polyline id="SVGID_2_" fill="none" stroke="#FFFFFF" stroke-width="3" stroke-miterlimit="10" points="734.67,64.897 
			708.67,64.897 708.67,85.648 708.67,103.896 734.67,103.896 		"/>
	</g>
	<g>
		
			<line id="SVGID_3_" fill="none" stroke="#FFFFFF" stroke-width="3" stroke-miterlimit="10" x1="710.099" y1="84.397" x2="733.258" y2="84.397"/>
	</g>
	<g>
		<path id="SVGID_4_" fill="none" stroke="#FFFFFF" stroke-width="3" stroke-miterlimit="10" d="M682.744,5.388
			c-38.526,5.759-68.074,38.988-68.074,79.117c0,40.104,29.508,73.313,67.997,79.104"/>
	</g>
	<g>
		<path id="SVGID_5_" fill="none" stroke="#FFFFFF" stroke-width="3" stroke-miterlimit="10" d="M706.668,163.611
			c38.491-5.789,68.002-39,68.002-79.106c0-40.123-29.537-73.347-68.055-79.114"/>
	</g>
</g>
<g id="Layer_3">
	<g>
		<path fill-rule="evenodd" clip-rule="evenodd" fill="#FFFFFF" stroke="#000000" stroke-width="2" stroke-miterlimit="10" d="
			M48.079,162.499c-0.854,1.354-1.462,3.489-2.724,3.995c-1.25,0.502-3.301-0.366-4.746-1.122c-2.412-1.261-5.024-2.535-6.833-4.475
			c-3.772-4.041-7.74-8.149-10.413-12.91c-3.624-6.46-5.578-13.858-9.235-20.295c-3.483-6.125-4.303-12.747-5.698-19.312
			c-1.57-7.39-1.791-14.913-1.067-22.417C8.09,78.429,8.552,70.8,10.144,63.435c1.756-8.127,4.731-15.985,7.046-23.998
			c1.571-5.438,3.35-10.758,7.16-15.087c1.291-1.467,2.922-2.635,4.397-3.94c0.354,0.24,0.709,0.479,1.063,0.719
			c-0.505,1.652-0.817,3.397-1.559,4.935c-1.209,2.507-2.997,4.762-4.01,7.332c-2.792,7.082-5.783,14.137-7.819,21.447
			c-2.898,10.406-4.206,21.074-2.997,31.964c0.539,4.857-0.01,9.862,0.781,14.66c0.967,5.862,2.643,11.63,4.346,17.34
			c1.686,5.649,3.156,11.454,7.613,15.854c0.75,0.743,0.675,2.269,1.126,3.375c2.021,4.964,5.089,9.129,9.03,12.818
			c2.894,2.71,5.16,6.082,7.837,9.04C44.971,160.792,46.222,161.293,48.079,162.499z"/>
		<path fill-rule="evenodd" clip-rule="evenodd" fill="#FFFFFF" stroke="#000000" stroke-width="2" stroke-miterlimit="10" d="
			M280.741,138.695c1.369-0.071,2.233-0.375,2.845-0.105c2.863,1.26,5.636,2.727,8.491,4.006c0.795,0.357,1.79,0.239,2.646,0.495
			c1.545,0.465,3.039,1.103,4.584,1.563c1.178,0.347,2.527,0.302,3.575,0.854c1.167,0.616,2.079,1.712,3.1,2.598
			c-1.146,0.871-2.482,2.659-3.407,2.467c-6.309-1.314-12.555-2.962-18.769-4.69c-1.934-0.536-3.95-1.359-5.476-2.604
			c-1.215-0.992-2.423-2.809-2.461-4.291c-0.206-7.711-0.191-15.436,0.049-23.146c0.228-7.317,0.837-14.621,1.259-21.933
			c0.545-9.474,1.181-18.942,1.567-28.423c0.308-7.547,0.438-15.106,0.382-22.659c-0.038-4.872-0.503-9.746-0.915-14.606
			c-0.061-0.707-0.898-1.35-1.352-1.989c1.757-1.259,3.48-2.492,5.438-3.893c0.29,0.872,0.78,1.607,0.728,2.299
			c-0.575,7.464,0.4,14.786,1.803,22.086c0.142,0.732-0.337,1.566-0.341,2.354c-0.018,4.28,0.127,8.562,0.005,12.837
			c-0.068,2.392-0.778,4.771-0.788,7.158c-0.018,4.794,0.437,9.594,0.342,14.382c-0.097,4.931-0.709,9.849-0.921,14.778
			c-0.177,4.136,0.161,8.306-0.198,12.418c-0.647,7.394-1.714,14.748-2.45,22.135C280.279,134.781,280.643,136.827,280.741,138.695z
			"/>
		<path fill-rule="evenodd" clip-rule="evenodd" fill="#FFFFFF" stroke="#000000" stroke-width="2" stroke-miterlimit="10" d="
			M381.74,33.393c-0.252,1.763-0.614,3.515-0.731,5.287c-0.125,1.881,0.025,3.776-0.018,5.664
			c-0.172,7.767-0.425,15.533-0.526,23.301c-0.03,2.142,0.446,4.288,0.533,6.438c0.061,1.526-0.111,3.066-0.23,4.596
			c-0.557,7.089-1.338,14.166-1.646,21.267c-0.385,8.972-0.421,17.96-0.55,26.942c-0.076,5.2,0.072,10.407-0.127,15.601
			c-0.055,1.45-0.79,2.982-1.558,4.274c-1.129,1.901-0.314,4.075,1.95,5.719c0.992,0.718,1.428,2.205,2.115,3.345
			c0.342-0.149,0.684-0.298,1.025-0.445c-0.203-0.852-0.406-1.701-0.578-2.426c2.337-0.514,4.946-1.85,7.152-1.36
			c2.341,0.517,1.915-1.608,3.246-2.065c3.908-1.34,7.501-3.581,11.251-5.399c1.697-0.822,3.474-1.477,5.272-2.284
			c1.768-0.709,3.536-1.414,5.304-2.123c0.309,0.289,0.617,0.578,0.926,0.867c-0.621,0.838-1.139,1.788-1.888,2.493
			c-2.168,2.034-4.439,3.952-6.645,5.947c-0.761,0.686-1.31,1.712-2.176,2.15c-7.69,3.88-15.86,6.413-24.411,7.107
			c-1.412,0.115-4.37-2.947-4.428-4.616c-0.389-11.502-1.849-23.004,0.153-34.558c0.742-4.287-0.316-8.863-0.283-13.305
			c0.054-7.349,0.379-14.695,0.476-22.043c0.031-2.331-0.492-4.671-0.41-6.996c0.061-1.696,0.969-3.363,1.03-5.059
			c0.322-8.822,1.014-17.681,0.474-26.458c-0.233-3.787,0.646-6.89,1.771-10.151c0.313-0.906,1.438-1.531,2.19-2.286
			C380.851,33.01,381.295,33.201,381.74,33.393z"/>
		<path fill-rule="evenodd" clip-rule="evenodd" fill="#FFFFFF" stroke="#000000" stroke-width="2" stroke-miterlimit="10" d="
			M81.84,29.112c4.034,0.698,3.639,4.362,4.617,7.011c1.034,2.798,1.79,5.711,2.489,8.617c0.906,3.766,1.596,7.582,2.451,11.358
			c0.899,3.968,1.954,7.903,2.81,11.881c0.828,3.842,1.594,7.703,2.188,11.587c0.429,2.805,0.61,5.657,0.77,8.497
			c0.33,5.824,0.574,11.653,0.847,17.483c0.235,5.031-0.229,10.23,0.929,15.04c0.795,3.299,3.803,6.085,5.893,9.048
			c2.316,3.283,5.99,3.674,9.532,4.358c2.417,0.468,5.328,0.399,5.334,4.062c-5.43,3.812-11.334,1.742-16.376-2.022
			c-1.52-1.135-2.562-2.911-3.819-4.396c-0.445-0.526-0.832-1.472-1.328-1.53c-4.596-0.549-4.678-3.779-4.636-7.279
			c0.072-6.105,0.215-12.223-0.064-18.318c-0.223-4.847-0.859-9.69-1.614-14.487c-1.881-11.967-3.621-23.971-6.048-35.831
			c-1.244-6.072-3.557-11.986-5.938-17.744C78.484,33.078,79.115,30.968,81.84,29.112z"/>
		<path fill-rule="evenodd" clip-rule="evenodd" fill="#FFFFFF" stroke="#000000" stroke-width="2" stroke-miterlimit="10" d="
			M502.536,147.014c-0.37,0.732-0.686,1.355-1.301,2.575c-0.419-1.766-0.681-2.867-1.097-4.621c-0.88,1.132-1.359,1.747-2.542,3.269
			c0.112-4.4,0.072-7.894,0.324-11.364c0.265-3.635,0.675-7.271,1.28-10.863c0.438-2.608,1.176-5.272,5.048-4.971
			c-0.015,3.525-0.042,6.918-0.04,10.31c0,5.2,2.087,7.096,7.054,7.558c4.779,0.443,9.495,1.571,14.249,2.335
			c5.623,0.9,11.269,1.669,16.88,2.636c1.448,0.251,2.8,1.039,4.204,1.558c2.178,0.802,3.402,2.521,2.567,4.571
			c-0.577,1.419-2.192,2.872-3.666,3.386c-5.217,1.816-10.44,1.645-15.874,0.101c-4.223-1.2-8.831-0.984-13.211-1.74
			c-1.644-0.286-3.858-2.614-4.55-2.146c-2.529,1.713-3.778-0.807-5.606-1.071C505.058,148.359,503.944,147.612,502.536,147.014z"/>
		<path fill-rule="evenodd" clip-rule="evenodd" fill="#FFFFFF" stroke="#000000" stroke-width="2" stroke-miterlimit="10" d="
			M252.952,150.866c-5.135-1.39-9.902-3.043-14.808-3.865c-2.774-0.465-4.039-2.167-5.573-3.899
			c-4.465-5.045-4.296-11.163-4.408-17.398c-0.109-6.103-1.158-12.183-1.599-18.287c-0.129-1.791,0.043-3.799,0.778-5.382
			c0.436-0.94,2.55-2.021,3.367-1.694c2.379,0.961,2.9,3.196,2.654,5.746c-0.208,2.162-0.102,4.384,0.156,6.544
			c0.051,0.425,1.421,0.695,2.031,0.971c0.123,2.345,0.296,4.704,0.36,7.067c0.108,4.041,0.296,8.089,0.164,12.125
			c-0.086,2.645,0.746,4.025,3.435,4.627c4.236,0.948,8.438,2.103,12.563,3.453c1.561,0.511,3.384,1.501,4.161,2.821
			c1.126,1.912,1.104,4.187-1.5,5.488C254.045,149.527,253.56,150.274,252.952,150.866z"/>
		<path fill-rule="evenodd" clip-rule="evenodd" fill="#FFFFFF" stroke="#000000" stroke-width="2" stroke-miterlimit="10" d="
			M489.189,138.681c-0.321,2.39-0.519,3.853-0.724,5.381c-3.305-1.634-2.677,0.417-1.96,2.208c-0.398,0.265-0.65,0.532-0.747,0.484
			c-3.935-1.982-7.888,0.032-11.829-0.051c-4.21-0.09-8.442,0.276-12.634-0.017c-5.072-0.355-10.342,0.493-15.136-2.024
			c-0.3-0.159-0.651-0.227-0.984-0.314c-3.522-0.923-4.91-2.731-4.647-6.381c0.413-5.746,0.9-11.488,1.411-17.23
			c0.314-3.516,1.75-4.52,5.516-3.944c-1.084,6.45-1.895,12.936,0.557,19.241c0.377,0.97,1.846,2.164,2.805,2.159
			c9.444-0.041,18.887-0.415,28.33-0.466C482.432,137.709,485.719,138.333,489.189,138.681z"/>
		<path fill-rule="evenodd" clip-rule="evenodd" fill="#FFFFFF" stroke="#000000" stroke-width="2" stroke-miterlimit="10" d="
			M149.22,49.784c-2.437,2.292-2.936,0.333-3.021-1.182c-0.365-6.511-0.744-13.033-0.665-19.546
			c0.034-2.787,1.069-5.649,4.668-6.025c-0.573,6.272-1.135,12.325-1.678,18.381c-0.485,5.404,1.365,7.249,6.604,8.032
			c3.9,0.582,7.608,2.378,11.5,3.104c4.069,0.76,8.257,0.884,12.392,1.291c0.691,0.067,1.383,0.146,2.07,0.247
			c4.417,0.646,4.835,1.268,3.838,5.672c-0.127,0.563-0.263,1.123-0.474,2.027c-6.139,1.484-12.297,0.64-18.407-0.548
			c-3.58-0.696-7.081-1.788-10.625-2.679C151.259,57.511,149.472,54.64,149.22,49.784z"/>
		<path fill-rule="evenodd" clip-rule="evenodd" fill="#FFFFFF" stroke="#000000" stroke-width="2" stroke-miterlimit="10" d="
			M335.223,99.738c-0.047,2.457-0.313,4.936-0.099,7.371c0.617,6.986,1.429,13.956,2.162,20.931
			c0.024,0.229,0.015,0.463,0.042,0.694c0.199,1.61-0.067,4.29,0.695,4.626c1.966,0.865,4.407,1.011,6.623,0.871
			c6.286-0.396,12.553-1.436,18.826-1.423c1.81,0.003,3.614,2.709,5.548,4.278c-1.861,1.216-2.878,1.907-3.919,2.561
			c-3.832,2.404-8.256,2.662-12.503,2.758c-5.144,0.118-10.306-0.663-15.465-0.991c-2.773-0.174-6.031-5.455-5.604-8.161
			c0.703-4.445,1.01-8.978,1.121-13.479c0.146-5.852-0.125-11.709-0.055-17.562c0.011-0.949,0.853-1.891,1.313-2.834
			C334.347,99.496,334.783,99.616,335.223,99.738z"/>
		<path fill-rule="evenodd" clip-rule="evenodd" fill="#FFFFFF" stroke="#000000" stroke-width="2" stroke-miterlimit="10" d="
			M498.123,58.001c-0.316,0.069-0.808,0.177-1.468,0.318c0.26-2.85,0.272-5.664,0.888-8.339c0.226-0.982,1.874-1.637,2.874-2.442
			c0.847,1.35,2.73,3.141,2.373,3.978c-2.304,5.418,0.369,10.692,0.071,16.012c-0.074,1.308,1.069,2.75,1.862,3.999
			c0.269,0.426,1.176,0.62,1.794,0.622c5.072,0.015,10.157,0.15,15.218-0.131c5.068-0.283,10.108-1.065,15.173-1.5
			c1.423-0.122,2.886,0.21,4.328,0.334c0.173,0.35,0.342,0.701,0.513,1.053c-0.877,0.695-1.671,1.826-2.646,2.014
			c-5.321,1.028-10.69,1.787-16.029,2.727c-0.992,0.177-1.892,1.009-2.876,1.105c-1.8,0.18-3.634,0.004-5.451,0.041
			c-1.084,0.023-2.575-0.25-3.176,0.333c-2.911,2.83-5.71,1.845-8.63,0.218c-0.481-0.268-1.096-0.678-1.541-0.568
			c-3.79,0.914-3.892-1.958-4.114-4.224c-0.22-2.265,0.138-4.586,0.25-7.076L498.123,58.001z"/>
		<path fill-rule="evenodd" clip-rule="evenodd" fill="#FFFFFF" stroke="#000000" stroke-width="2" stroke-miterlimit="10" d="
			M447.013,65.071c3.558,0.661,6.333,1.186,9.113,1.69c4.35,0.791,8.699,1.601,13.061,2.34c2.774,0.471,5.558,0.931,8.355,1.212
			c3.855,0.385,7.729,0.597,11.7,0.892c-0.121,3.402-2.885,2.988-4.929,3.672c-6.36,2.125-12.399-0.789-18.598-1.096
			c-4.491-0.22-8.973-0.608-13.463-0.8c-0.853-0.036-2.399,0.355-2.491,0.793c-1.01,4.696-4.584,0.973-6.609,2.124
			c-0.917-2.02-2.47-3.991-2.626-6.07c-0.367-4.841-0.129-9.735,0.004-14.601c0.056-2.062,1.165-3.187,3.621-2.519
			C444.75,57.122,443.481,62.209,447.013,65.071z"/>
		<path fill-rule="evenodd" clip-rule="evenodd" fill="#FFFFFF" stroke="#000000" stroke-width="2" stroke-miterlimit="10" d="
			M518.914,110.109c-3.264,0.525-5.983,0.887-8.666,1.424c-1.646,0.331-3.279,0.823-4.846,1.438
			c-2.155,0.843-5.006-0.851-5.126-3.365c-0.191-3.981-0.191-7.972-0.233-11.957c-0.021-1.82,0.166-3.648,0.054-5.462
			c-0.309-4.918,0.141-5.495,5.305-5.857c0.265,5.058,0.527,10.107,0.794,15.157c0.013,0.231,0.048,0.461,0.046,0.689
			c-0.073,7.213-0.1,6.933,6.941,5.857c7.586-1.158,15.252-1.922,22.91-2.38c3.689-0.221,7.443,0.656,12.104,1.13
			c-2.802,1.316-2.151,6.355-6.803,4.027c-0.695,2.483-2.896,1.855-4.611,2.237c-0.339,0.076-0.687,0.3-1.004,0.256
			c-5.301-0.747-10.604-1.488-15.887-2.352C519.297,110.854,518.823,110.024,518.914,110.109z"/>
		<path fill-rule="evenodd" clip-rule="evenodd" fill="#FFFFFF" stroke="#000000" stroke-width="2" stroke-miterlimit="10" d="
			M447.8,81.947c-0.388,2.225,0.882,4.689-1.876,6.189c0.256,0.669,0.978,1.641,0.918,2.559c-0.354,5.554,3.285,7.862,7.705,8.719
			c5.81,1.125,11.502,2.229,16.903,4.862c2.707,1.318,5.929,1.592,9.102,2.386c-0.09,0.151,0.45-1.017,0.581-0.973
			c1.292,0.431,2.515,1.064,4.14,1.818c-3.165,3.419-6.4,1.474-9.275,1.58c-3.631,0.129-7.299-0.559-10.915-0.336
			c-6.178,0.383-11.823-1.498-17.539-3.3c-0.853-0.268-1.798-0.242-3.319-0.426c-3.434-4.053-1.697-9.478-1.434-14.734
			c0.08-1.604-0.072-3.218-0.014-4.822C442.914,81.759,443.746,81.146,447.8,81.947z"/>
		<path fill-rule="evenodd" clip-rule="evenodd" fill="#FFFFFF" stroke="#000000" stroke-width="2" stroke-miterlimit="10" d="
			M184.182,92.322c-0.531,3.832-2.316,5.151-5.465,5.221c-5.756,0.128-11.526,0.234-17.257,0.734
			c-6.453,0.563-12.649-0.692-16.582-5.601c-2.042-2.549-1.843-7.369-1.632-11.106c0.191-3.396,1.832-6.699,2.681-10.081
			c0.158-0.632-0.409-1.443-0.643-2.171c3.188,0.28,3.774,1.68,2.565,4.834c-1.751,4.572-1.644,9.536,0.384,13.713
			c1.44,2.966,4.516,5.57,8.822,4.825c1.292-0.223,2.713,0.452,4.069,0.428c5.599-0.096,11.197-0.29,16.794-0.474
			C179.921,92.579,181.921,92.44,184.182,92.322z"/>
		<path fill-rule="evenodd" clip-rule="evenodd" fill="#FFFFFF" stroke="#000000" stroke-width="2" stroke-miterlimit="10" d="
			M146.29,132.971c2.852-0.406,5.693-0.983,8.56-1.179c4.421-0.3,8.861-0.308,13.291-0.497c4.437-0.191,8.872-0.457,13.394-0.693
			c-0.037,1.852-0.058,2.903-0.085,4.193c-0.769,0.752-1.824,1.785-2.97,2.903c-0.178-0.139-0.75-0.96-1.248-0.916
			c-3.669,0.319-7.336,1.255-10.979,1.15c-6.122-0.176-12.64,2.029-18.205-2.291c-0.82-0.638-1.131-1.928-1.678-2.916
			C146.369,132.726,146.29,132.971,146.29,132.971z"/>
		<path fill-rule="evenodd" clip-rule="evenodd" fill="#FFFFFF" stroke="#000000" stroke-width="2" stroke-miterlimit="10" d="
			M146.29,132.971c0,0,0.079-0.245,0.08-0.245c-1.022,1.538-2.377,1.793-3.182,0.097c-1.257-2.648-2.098-5.497-3.115-8.259
			c3.624-2.576,1.662-6.523,1.675-9.56c0.015-3.398,2.329-5.792,2.32-8.948c-0.001-0.465,0.913-0.934,1.356-1.352
			c3.18,0.934,1.668,3.251,1.458,4.873C145.87,117.365,143.901,125.104,146.29,132.971z"/>
		<path fill-rule="evenodd" clip-rule="evenodd" fill="#FFFFFF" stroke="#000000" stroke-width="2" stroke-miterlimit="10" d="
			M325.333,39.87c-1.192-6.674,1.678-12.977,2.36-19.476c0.095-0.895,1.974-1.601,3.026-2.395c0.282,0.166,0.564,0.333,0.848,0.499
			c-1.684,7.178-3.368,14.356-5.052,21.534C326.123,39.977,325.728,39.923,325.333,39.87z"/>
		<path fill-rule="evenodd" clip-rule="evenodd" fill="#FFFFFF" stroke="#000000" stroke-width="2" stroke-miterlimit="10" d="
			M323.548,110.78c-1.152-1.066-3.006-2.004-3.045-3.011c-0.051-1.347,1.164-2.863,2.141-4.057c0.285-0.35,1.772-0.086,2.402,0.345
			c0.439,0.3,0.625,1.44,0.448,2.073C325.115,107.482,324.428,108.749,323.548,110.78z"/>
		<path fill-rule="evenodd" clip-rule="evenodd" fill="#FFFFFF" stroke="#000000" stroke-width="2" stroke-miterlimit="10" d="
			M193.029,117.229c0.494-0.936,1.301-1.828,1.428-2.812c0.944-7.299,2.223-14.601,2.498-21.936
			c0.485-12.905,3.331-25.705,1.759-38.715c-0.212-1.745,0.552-3.607,0.908-5.67c-0.746-0.016-1.406-0.029-2.554-0.052
			c4.047-3.083,0.75-7.157,2.252-10.284c0.58-1.208,2.299-1.87,3.499-2.782c0.444,1.163,1.247,2.315,1.275,3.487
			c0.191,7.922,0.57,15.865,0.211,23.771c-0.448,9.856-1.22,19.726-2.471,29.511c-0.974,7.632-2.901,15.142-4.384,22.708
			c-0.437,2.235-1.435,4.606-1.027,6.693c0.436,2.229,1.795,4.745,3.546,6.126c1.875,1.477,4.655,1.849,7.082,2.566
			c3.488,1.03,5.526,3.327,5.063,5.901c-0.399,2.218-4.396,4.654-7.188,4.021c-4.151-0.94-8.301-2.006-12.297-3.449
			c-1.163-0.418-2.658-2.407-2.522-3.492c0.474-3.762,1.623-7.437,2.456-11.157c0.237-1.057,0.274-2.158,0.523-4.262
			L193.029,117.229z"/>
	</g>
	<g>
		<path fill-rule="evenodd" clip-rule="evenodd" fill="#FFFF00" stroke="#000000" stroke-width="2" stroke-miterlimit="10" d="
			M383.987,147.45c0.748-42.038,1.485-83.4,2.241-125.902c4.562,1.954,8.27,3.51,11.951,5.127c4.042,1.772,8.062,3.595,12.087,5.41
			c5.49,2.475,11.061,4.789,16.435,7.497c4.614,2.326,4.542,7.359,5.154,11.474c0.658,4.415-0.033,9.031-0.14,13.56
			c-0.002,0.112-0.021,0.239-0.079,0.333c-2.771,4.815-5.421,9.704-8.383,14.4c-1.257,1.991-3.447,3.4-4.669,5.407
			c-0.682,1.12-0.889,3.403-0.197,4.327c2.591,3.463,5.812,6.445,8.465,9.861c2.752,3.541,6.509,7.114,7.286,11.159
			c0.856,4.474-0.079,9.613-3.683,13.825c-2.823,3.301-5.715,6.118-9.669,7.847c-0.38,0.167-0.883,0.8-0.992,0.724
			c-3.679-2.522-5.916,0.721-8.223,2.339c-6.241,4.374-13.386,6.61-20.33,9.362C388.782,145.175,386.405,146.361,383.987,147.45z
			 M400.793,51.803c1.372-2.213,3.444-2.124,5.521-0.328c2.157,1.862,4.456,3.675,6.146,5.921c1.45,1.928,3.218,4.866,0.959,6.843
			c-2.545,2.23-4.495-0.643-6.318-2.294c-1.104-1.002-2.148-2.075-3.277-3.05c-0.976-0.844-2.031-1.596-3.916-3.059
			c-0.039,4.695-0.312,8.355-0.031,11.973c0.27,3.495,0.077,6.463-3.102,8.774c-0.59,0.431,0.062,2.569,0.141,3.918
			c0.971-0.209,2.12-0.153,2.881-0.671c4.564-3.099,9.1-6.252,13.522-9.549c2.376-1.772,4.922-3.565,6.645-5.897
			c1.87-2.528,3.146-5.724,0.23-8.627c-0.858-0.855-1.913-1.538-2.958-2.171c-2.191-1.332-3.235-3.751-4.985-5.342
			c-2.581-2.345-5.79-4.088-8.936-5.691c-2.479-1.266-5.265-1.934-8.09-2.93C397.277,44.108,399.008,47.9,400.793,51.803z
			 M412.505,115.148c-3.494-3.334-6.749-6.436-10.753-10.258c-0.117,5.742-0.463,10.304-0.196,14.833
			c0.138,2.342-0.557,3.499-2.414,4.664c-1.075,0.675-1.673,2.114-2.485,3.211c0.154,0.365,0.308,0.73,0.462,1.094
			c1.464,0.053,3.249,0.673,4.337,0.061c6.009-3.384,11.91-6.969,17.72-10.683c4.127-2.637,4.711-6.12,1.484-9.847
			c-2.325-2.688-5.143-4.983-7.894-7.271c-3.535-2.94-7.319-5.588-10.809-8.577c-1.862-1.598-3.53-1.819-5.413-0.839
			c-0.814,4.719,7.176,4.447,4.401,10.209c3.554-1.721,6.138-1.225,8.329,1.18c2.538,2.781,5.107,5.531,7.934,8.589
			C415.304,112.987,413.808,114.144,412.505,115.148z"/>
		<path fill-rule="evenodd" clip-rule="evenodd" fill="#FFFF00" stroke="#000000" stroke-width="2" stroke-miterlimit="10" d="
			M107.835,13.04c3.159,0.547,8.46,0.472,12.805,2.473c4.981,2.296,9.673,5.902,13.474,9.906c4.796,5.05,7.733,11.146,9.229,18.437
			c1.219,5.946-0.228,10.229-2.542,15.081c-2.642,5.542-3.307,12.009-7.644,16.759c-2.774,3.036-5.582,6.082-8.678,8.772
			c-2.593,2.255-4.021,4.347-3.9,8.183c0.342,10.857,0.102,21.74-0.203,32.605c-0.16,5.676-0.594,6.074-5.993,4.003
			c-3.86-1.482-7.558-3.866-10.671-6.596c-1.345-1.177-1.255-4.23-1.436-6.461c-0.831-10.27-1.452-20.553-2.299-30.817
			c-0.515-6.251-0.835-12.577-2.081-18.697c-1.911-9.389-4.244-18.724-7.042-27.883c-0.937-3.068-1.512-6.638-4.669-9.024
			c-1.587-1.2-2.062-3.938-2.874-6.042c-0.163-0.421,0.256-1.36,0.688-1.677C90.55,17.275,98.036,14.868,107.835,13.04z
			 M106.395,71.218c2.215,0.146,4.246,0.644,6.144,0.333c4.782-0.782,8.348-2.729,11.027-7.588
			c3.553-6.442,6.95-12.311,5.776-20.139c-0.69-4.607-2.241-8.078-5.658-11.234c-2.797-2.584-5.896-2.864-9.194-2.806
			c-4.534,0.078-9.063,0.447-13.621,0.692c0.564,3.46,1.195,4.113,4.255,3.684c1.945-0.273,2.688,0.2,2.997,2.166
			c0.856,5.473,1.853,10.927,2.909,16.367c0.801,4.126,1.777,8.22,2.724,12.551c-2.118,0.634-3.86,1.163-5.606,1.675
			C105.548,67.685,105.35,69.265,106.395,71.218z"/>
		<path fill-rule="evenodd" clip-rule="evenodd" fill="#FFFF00" stroke="#000000" stroke-width="2" stroke-miterlimit="10" d="
			M187.529,117.727c-4.954,7.592-6.83,5.94-13.242,6.855c-5.352,0.761-10.74,1.267-16.092,2.036
			c-6.467,0.928-7.455,0.028-6.792-5.895c0.546-4.884,0.849-9.803,1.038-14.716c0.091-2.371,0.197-4.121,3.265-2.78
			c0.507,0.22,1.144,0.263,1.707,0.216c8.911-0.762,17.82-1.544,26.726-2.354c0.665-0.062,1.296-0.428,1.957-0.607
			c4.043-1.102,5.296,0.275,5.103,4.456c-0.186,4.063,0.353,8.158,0.573,12.24C192.137,117.286,187.164,117.619,187.529,117.727"/>
		<path fill-rule="evenodd" clip-rule="evenodd" fill="#FFFF00" stroke="#000000" stroke-width="2" stroke-miterlimit="10" d="
			M189.982,48.526c-1.758,2.701-3.776,2.142-6.412,1.222c-3.27-1.14-6.884-1.286-10.345-1.885c-3.031-0.524-6.048-1.139-9.087-1.605
			c-3.379-0.518-6.776-0.909-10.528-1.406c-0.219-4.064-0.512-8.348-0.659-12.636c-0.093-2.72,0.029-5.447,0.065-9.37
			c1.572-2.958,5.401-3.371,9.403-3.333c3.633,0.036,7.266,0.239,10.897,0.185c2.135-0.033,4.233,2.231,6.386,0.11
			c0.784,0.806,1.568,1.612,2.359,2.425c2.908-2.415,6.164-0.847,8.729,0.343c1.288,0.598,1.625,3.896,1.823,6.025
			c0.265,2.838-0.115,5.731-0.052,8.597c0.081,3.652,0.378,7.297,0.465,10.949c0.021,0.903-0.403,1.817-0.624,2.729
			C191.717,50.209,191.031,49.544,189.982,48.526z"/>
		<path fill-rule="evenodd" clip-rule="evenodd" fill="#FFFF00" stroke="#000000" stroke-width="2" stroke-miterlimit="10" d="
			M527.601,65.899c-1.79,0.333-3.532,0.822-5.299,0.955c-4.561,0.341-9.134,0.524-14.735,0.827
			c-0.212-3.939-0.583-8.143-0.598-12.347c-0.004-1.79,0.924-3.563,1.093-5.376c0.187-1.972-0.247-4.011,0.004-5.969
			c0.359-2.81,4.271-4.124,6.643-2.487c0.518,0.36,1.433,0.426,2.082,0.272c2.675-0.636,5.619-2.495,7.894-1.86
			c2.985,0.831,5.507-0.422,8.256-0.138c3.705,0.384,7.475,0.136,11.201,0.401c1.705,0.121,3.32,0.672,3.428,3.06
			c0.291,6.505,0.758,13.004,1.162,19.507c0.147,2.373-1.092,2.805-3.215,2.7c-2.312-0.114-4.646,0.308-6.973,0.366
			C534.933,65.897,531.321,65.875,527.601,65.899z"/>
		<path fill-rule="evenodd" clip-rule="evenodd" fill="#FFFF00" stroke="#000000" stroke-width="2" stroke-miterlimit="10" d="
			M510.563,103.561c-0.358-6.658-0.71-13.18-1.094-20.275c1.32-0.265,3.129-0.758,4.972-0.977
			c5.139-0.609,10.294-1.554,15.438-1.519c5.361,0.04,10.412-1.479,15.633-2.021c1.575-0.165,3.119-0.646,4.834-1.018
			c0.809,7.399,1.608,14.714,2.375,21.722C538.7,100.833,524.744,102.186,510.563,103.561z"/>
		<path fill-rule="evenodd" clip-rule="evenodd" fill="#FFFF00" stroke="#000000" stroke-width="2" stroke-miterlimit="10" d="
			M170.433,67.472c0.182-0.065,1.096-0.723,1.945-0.647c6.262,0.551,12.51,1.246,19.845,2.009c0.195,3.616,0.798,7.807,0.553,11.948
			c-0.351,5.956-0.617,5.862-6.886,6.101c-6.555,0.25-13.1,0.768-19.654,0.978c-3.686,0.118-7.384-0.146-11.076-0.238
			c-2.024-0.05-2.811-1.038-2.69-3.092c0.194-3.305,0.28-6.624,0.223-9.936c-0.033-2.004-0.506-3.997-0.612-6.005
			c-0.048-0.903,0.093-2.462,0.541-2.621c1.207-0.431,3.39-0.84,3.83-0.246c2.219,2.98,5.124,1.538,7.766,1.676
			C165.972,67.492,167.734,67.446,170.433,67.472z"/>
		<path fill-rule="evenodd" clip-rule="evenodd" fill="#FFFF00" stroke="#000000" stroke-width="2" stroke-miterlimit="10" d="
			M551.717,130.896c-1.26-0.794-1.121-0.647-2.337,0.494c-0.642,0.599-1.853,0.697-2.831,0.8c-0.803,0.085-1.64-0.158-2.46-0.258
			c-0.047,0.332-0.093,0.665-0.138,0.998c1.261,0.099,2.565,0.021,3.771,0.333c1.826,0.475,3.963,0.822,5.219,2.015
			c0.675,0.64-0.219,2.93-0.427,4.667c-5.741-0.921-10.834-1.614-15.874-2.591c-3.418-0.661-6.731-1.867-10.147-2.55
			c-2.172-0.435-4.708-1.053-6.606-0.335c-2.428,0.918-4.299-0.976-6.449-0.31c-0.308,0.095-0.687-0.085-1.027-0.058
			c-3.555,0.278-4.371-1.116-3.308-4.515c0.699-2.225,0.651-4.702,0.795-7.074c0.076-1.242-0.329-2.518-0.208-3.748
			c0.182-1.839,1.312-2.87,3.24-2.553c6.666,1.103,13.304,2.437,19.999,3.315c3.356,0.442,6.817,0.013,10.225,0.131
			c1.562,0.054,3.111,0.453,4.659,0.75c1.227,0.234,2.456,0.485,3.65,0.839c1.268,0.378,3.58,0.955,3.559,1.33
			c-0.119,1.985-0.703,3.981-1.392,5.877C553.299,129.367,552.386,130.072,551.717,130.896z"/>
		<path fill-rule="evenodd" clip-rule="evenodd" fill="#FFFF00" stroke="#000000" stroke-width="2" stroke-miterlimit="10" d="
			M488.315,44.232c0.384,7.138,0.746,13.867,1.142,21.198c-9.901-3.235-19.441-1.355-28.888-1.799
			c-3.785-0.177-7.517-1.513-10.686-2.196c-0.245-4.523-0.252-8.6-0.747-12.615c-0.388-3.131,1.325-3.932,3.593-3.461
			c4.969,1.032,9.597-1.101,14.428-1.083C474.253,44.301,481.348,44.25,488.315,44.232z"/>
		<path fill-rule="evenodd" clip-rule="evenodd" fill="#FFFF00" stroke="#000000" stroke-width="2" stroke-miterlimit="10" d="
			M450.186,113.316c2.584-0.14,5.813-1.087,8.499-0.262c3.31,1.016,6.316,1.2,9.729,1.059c6.138-0.255,12.33,0.246,18.471,0.784
			c5.192,0.456,6.094,1.938,5.054,7.011c-0.551,2.68-1.084,5.373-1.856,7.993c-0.222,0.761-1.208,1.804-1.899,1.846
			c-9.134,0.563-18.271,1.114-27.42,1.328c-2.65,0.061-5.358-0.859-7.967-1.594c-0.423-0.12-0.507-1.603-0.66-2.469
			c-0.061-0.345,0.283-0.984,0.166-1.062c-2.618-1.701-1.085-3.673-0.825-5.859C451.782,119.53,450.77,116.813,450.186,113.316z"/>
		<path fill-rule="evenodd" clip-rule="evenodd" fill="#FFFF00" stroke="#000000" stroke-width="2" stroke-miterlimit="10" d="
			M490.794,82.645c-0.222,6.227-0.438,12.329-0.687,19.411c-6.407-1.614-12.39-3.493-18.514-4.56
			c-6.33-1.104-12.797-1.42-20.091-2.17c0.839-3.92,2.913-7.757,1.772-9.549c-2.112-3.32-0.793-5.682-0.166-8.774
			C465.923,76.798,477.961,80.8,490.794,82.645z"/>
		<path fill-rule="evenodd" clip-rule="evenodd" fill="#FFFF00" stroke="#000000" stroke-width="2" stroke-miterlimit="10" d="
			M364.862,5.794c0.274,5.075,0.376,9.728,0.846,14.344c0.188,1.853,1.537,3.585,1.726,5.438c0.284,2.785-0.6,5.791,0.103,8.411
			c1.528,5.695,0.521,11.392,0.81,17.07c0.388,7.642,0.386,15.302,0.754,22.947c0.492,10.208,1.164,20.405,1.781,30.608
			c0.337,5.534,0.847,11.062,0.961,16.602c0.02,0.932-1.385,2.272-2.442,2.789c-7.96,3.898-16.443,5.188-25.244,4.666
			c-0.457-0.027-0.917,0.042-2.351,0.119c-0.214-3.366-0.266-6.698-0.676-9.986c-0.618-4.945-1.455-9.863-2.258-14.785
			c-0.616-3.789-1.491-7.545-1.887-11.352c-0.122-1.188,0.972-2.488,1.472-3.75c1.686-4.272,3.357-8.55,5.033-12.826
			c-0.28-0.318-0.561-0.635-0.841-0.952c-0.958,0.565-2.289,0.899-2.806,1.736c-1.87,3.034-3.545,6.199-5.15,9.386
			c-2.657,5.276-5.205,10.608-7.955,16.239c-4.34-8.371-8.447-16.3-12.556-24.224c-0.513,0.078-1.024,0.154-1.536,0.232
			c-0.104,1.501-0.625,3.123-0.237,4.484c1.352,4.732,3.655,9.274,4.393,14.072c0.786,5.112,0.541,10.463,0.127,15.66
			c-0.415,5.222-1.621,10.38-2.426,15.573c-0.603,3.895-0.947,7.84-1.82,11.67c-0.171,0.753-2.346,1.684-3.401,1.487
			c-4.278-0.801-8.521-1.883-12.701-3.109c-2.895-0.852-5.621-2.268-8.51-3.143c-3.261-0.989-2.627-3.925-2.601-5.87
			c0.06-4.241,0.914-8.479,1.564-12.701c0.316-2.053,1.3-4.063,1.295-6.094c-0.013-6.687-0.488-13.373-0.491-20.062
			c-0.001-3.914,0.695-7.824,0.821-11.745c0.145-4.493,0.017-8.995-0.014-13.492c-0.071-10.621-0.056-21.241-0.283-31.856
			c-0.09-4.218-0.966-8.418-1.048-12.635c-0.065-3.388,0.711-6.785,0.759-10.185c0.031-2.213-0.577-4.435-0.945-6.975
			c4.491-0.727,7.594,2.087,11.083,3.484c2.958,1.185,5.791,2.685,8.677,4.048c0.315,0.149,0.637,0.294,0.917,0.497
			c3.394,2.44,7.042,4.614,10.049,7.466c1.345,1.276,1.492,3.894,2.013,5.946c1.288,5.073,2.375,10.201,3.733,15.254
			c1.864,6.927,3.858,13.82,5.933,20.688c0.234,0.775,1.356,1.285,2.065,1.919c0.497-1.041,1.534-2.167,1.387-3.107
			c-0.396-2.522-1.022-5.091-2.062-7.415c-1.834-4.104-0.43-7.628,1.201-11.294c0.681-1.527,0.98-3.257,1.252-4.927
			c0.521-3.216,0.868-6.458,1.349-9.681c0.262-1.764,0.998-3.525,0.911-5.256c-0.183-3.578,1.987-4.423,4.796-5.438
			c6.158-2.225,12.162-4.875,18.227-7.364C360.655,7.585,362.639,6.731,364.862,5.794z"/>
		<path fill-rule="evenodd" clip-rule="evenodd" fill="#FFFF00" stroke="#000000" stroke-width="2" stroke-miterlimit="10" d="
			M82.285,65.745c1.278,3.024,2.573,6.042,3.827,9.074c0.611,1.477,1.321,2.943,1.684,4.487c0.899,3.832,1.758,7.684,2.365,11.569
			c0.314,2.003,0.055,4.096,0.055,6.147c0.003,5.044,0.339,10.118-0.083,15.129c-0.451,5.359-1.546,10.672-2.495,15.98
			c-0.623,3.483-1.485,6.924-2.242,10.382c-0.074,0.336-0.073,0.728-0.253,0.995c-3.212,4.722-6.405,9.459-9.687,14.134
			c-4.511,6.427-13.009,9.819-20.359,7.079c-3.868-1.442-7.499-4.4-10.355-7.49c-5.119-5.534-9.796-11.522-14.204-17.647
			c-2.082-2.894-2.887-6.671-4.668-9.822c-4.384-7.758-5.988-16.264-7.864-24.837c-1.468-6.712-1.093-13.314-0.971-19.921
			c0.096-5.204,1.584-10.386,2.513-15.567c0.85-4.738,1.26-9.636,2.8-14.144c2.073-6.072,4.986-11.862,7.655-17.721
			c1.308-2.87,3.227-5.497,4.257-8.447c2.014-5.767,7.415-9.206,13.71-8.239c0.903,0.14,1.84,0.412,2.718,0.296
			c5.449-0.716,8.986,2.537,11.981,6.19c6.355,7.75,10.133,16.907,13.626,26.211c1.793,4.777,4.151,9.341,6.215,14.017
			c0.26,0.59,0.283,1.287,0.416,1.931C82.713,65.604,82.5,65.675,82.285,65.745z M49.193,118.339
			c0.329-0.203,0.657-0.406,0.986-0.611c-0.133-2.459-0.797-5.031-0.298-7.354c1.488-6.924,2.23-13.806,0.625-20.764
			c-1.271-5.517-0.839-11.395-4.107-16.529c-1.057-1.66-0.854-4.29-0.742-6.451c0.053-1.021,1.072-2.511,1.982-2.817
			c0.821-0.276,2.628,0.48,3.059,1.285c1.424,2.659,2.479,5.525,3.572,8.352c5.629,14.55,5.706,29.335,1.673,44.243
			c-0.339,1.252-1.363,2.327-2.104,3.461c-1.653,2.531-3.329,5.048-4.995,7.57c0.428,0.457,0.855,0.914,1.284,1.37
			c1.168-0.651,2.72-1.028,3.438-2.011c2.837-3.894,4.89-8.03,5.848-12.989c1.965-10.178,3.315-20.232,0.603-30.434
			c-0.52-1.953-1.455-3.81-1.851-5.781c-1.667-8.281-4.02-16.309-8.837-23.36c-1.469-2.149-3.503-3.916-5.278-5.858
			c-0.273,0.186-0.548,0.37-0.822,0.555c0.053,0.969-0.283,2.283,0.22,2.848c2.992,3.37,0.922,6.214-0.662,9.159
			c-0.163,0.304-0.342,0.635-0.375,0.967c-0.969,9.832-1.923,19.665-2.859,29.5c-0.031,0.324,0.127,0.671,0.222,0.999
			c1.438,4.984,2.625,10.058,4.408,14.916C45.429,112.002,47.493,115.103,49.193,118.339z"/>
		<path fill-rule="evenodd" clip-rule="evenodd" fill="#FFFF00" stroke="#000000" stroke-width="2" stroke-miterlimit="10" d="
			M217.062,126.097c-5.794-1.159-11.136-2.229-17.206-3.443c1.934-10.041,4.066-19.695,5.577-29.444
			c1.027-6.629,1.243-13.39,1.713-20.1c0.376-5.382,0.871-10.777,0.801-16.162c-0.087-6.746-0.822-13.482-1.019-20.229
			c-0.074-2.571,0.399-5.203,1.009-7.714c0.148-0.605,1.85-1.216,2.799-1.162c1.734,0.098,3.422,0.866,5.161,1.046
			c4.038,0.413,8.097,0.618,12.142,0.97c0.727,0.063,1.874,0.235,2.069,0.686c1.166,2.7,2.159,5.478,3.118,8.261
			c1.439,4.176,2.802,8.375,4.197,12.565c0.309-0.021,0.62-0.041,0.929-0.059c0.145-1.383,0.323-2.76,0.427-4.145
			c0.198-2.647,0.083-5.36,0.661-7.918c0.229-1.014,1.955-1.691,2.999-2.523c0.761,0.964,2.17,1.928,2.169,2.891
			c0,3.899-0.108,7.861-0.849,11.669c-0.355,1.827-2.211,3.362-3.387,5.029c-0.521,0.02-1.043,0.038-1.565,0.056
			c3.094,7.394,6.19,14.788,9.285,22.181c0.614-0.147,1.228-0.294,1.842-0.441c-0.208-1.419-0.096-2.986-0.675-4.231
			c-4.164-8.935-2.677-18.125-1.558-27.346c0.575-4.75,0.815-9.541,1.193-14.153c1.562-0.256,3.292-0.688,5.04-0.77
			c1.089-0.052,2.218,0.374,3.304,0.678c1.288,0.363,2.521,1.02,3.827,1.199c2.056,0.282,3.941,0.325,5.4,2.377
			c0.685,0.962,2.639,1.25,4.067,1.416c3.758,0.437,5.268,2.43,4.583,6.093c-0.202,1.083,0.308,2.281,0.279,3.42
			c-0.062,2.629-0.229,5.256-0.405,7.88c-0.222,3.288-0.647,6.568-0.712,9.857c-0.091,4.662,0.299,9.339,0.043,13.984
			c-0.19,3.493-1.732,6.992-1.513,10.415c0.536,8.319-2.075,16.085-3.519,24.037c-1.351,7.437-3.344,14.76-5.128,22.115
			c-0.263,1.087-0.935,2.077-1.418,3.113c-4.294-0.23-8.517-0.418-12.733-0.695c-4.348-0.285-6.019-2.054-6.353-6.216
			c-0.756-9.414-2.548-18.62-6.33-27.325c-2.644-6.089-5.417-12.124-8.378-18.062c-0.457-0.916-2.23-1.176-3.395-1.74
			c0.126,1.068-0.084,2.348,0.434,3.169c3.439,5.462,1.742,10.847-0.252,16.104c-2.272,5.986-4.988,11.805-7.393,17.745
			C217.678,122.816,217.433,124.63,217.062,126.097z"/>
		<path fill-rule="evenodd" clip-rule="evenodd" fill="#FFFF00" stroke="#000000" stroke-width="2" stroke-miterlimit="10" d="
			M125.979,50.532c-0.595,2.858-1.519,7.776-5.639,11.063c-1.032,0.824-3.067,0.389-4.642,0.531
			c0.105-1.562,0.028-3.166,0.379-4.672c0.222-0.948,1.167-1.705,1.64-2.624c3.007-5.839,1.89-8.391-3.775-12.21
			c-1.629-1.099-3.389-2.337-4.398-3.946c-1.669-2.66-0.587-4.886,2.404-4.625c2.619,0.229,5.34,1.485,7.621,2.918
			C123.688,39.557,126.101,43.406,125.979,50.532z"/>
	</g>
	<g>
		<path fill-rule="evenodd" clip-rule="evenodd" fill="#00A0C6" stroke="#000000" stroke-width="2" stroke-miterlimit="10" d="
			M48.079,162.499c-0.854,1.354-1.462,3.489-2.724,3.995c-1.25,0.502-3.301-0.367-4.746-1.122c-2.412-1.261-5.024-2.535-6.833-4.475
			c-3.772-4.041-7.74-8.149-10.413-12.91c-3.624-6.46-5.578-13.858-9.235-20.295c-3.483-6.125-4.303-12.747-5.698-19.312
			c-1.57-7.39-1.791-14.913-1.067-22.417C8.09,78.429,8.552,70.8,10.144,63.435c1.756-8.127,4.731-15.985,7.046-23.998
			c1.571-5.438,3.35-10.758,7.16-15.087c1.291-1.467,2.922-2.635,4.397-3.94c0.354,0.24,0.709,0.479,1.063,0.719
			c-0.505,1.652-0.817,3.397-1.559,4.935c-1.209,2.507-2.997,4.762-4.01,7.332c-2.792,7.082-5.783,14.137-7.819,21.447
			c-2.898,10.406-4.206,21.074-2.997,31.964c0.539,4.857-0.01,9.862,0.781,14.66c0.967,5.862,2.643,11.63,4.346,17.34
			c1.686,5.649,3.156,11.454,7.613,15.854c0.75,0.743,0.675,2.269,1.126,3.375c2.021,4.964,5.089,9.129,9.03,12.818
			c2.894,2.71,5.16,6.082,7.837,9.04C44.971,160.792,46.222,161.293,48.079,162.499z"/>
		<path fill-rule="evenodd" clip-rule="evenodd" fill="#00A0C6" stroke="#000000" stroke-width="2" stroke-miterlimit="10" d="
			M280.741,138.695c1.369-0.071,2.233-0.375,2.846-0.105c2.863,1.26,5.635,2.727,8.491,4.006c0.795,0.357,1.79,0.239,2.646,0.495
			c1.544,0.465,3.039,1.103,4.584,1.563c1.178,0.347,2.527,0.302,3.575,0.854c1.167,0.616,2.079,1.712,3.099,2.598
			c-1.146,0.871-2.481,2.659-3.407,2.467c-6.308-1.314-12.555-2.962-18.769-4.69c-1.933-0.536-3.95-1.359-5.476-2.604
			c-1.214-0.992-2.422-2.809-2.46-4.291c-0.207-7.711-0.191-15.436,0.049-23.146c0.227-7.317,0.837-14.621,1.258-21.933
			c0.546-9.474,1.182-18.942,1.567-28.423c0.309-7.547,0.438-15.106,0.383-22.659c-0.039-4.872-0.503-9.746-0.916-14.606
			c-0.061-0.707-0.898-1.35-1.352-1.989c1.757-1.259,3.481-2.492,5.438-3.893c0.29,0.872,0.78,1.607,0.727,2.299
			c-0.575,7.464,0.401,14.786,1.803,22.086c0.142,0.732-0.336,1.566-0.34,2.354c-0.018,4.28,0.126,8.562,0.004,12.837
			c-0.068,2.392-0.777,4.771-0.787,7.158c-0.019,4.794,0.436,9.594,0.341,14.382c-0.097,4.931-0.708,9.848-0.921,14.778
			c-0.176,4.136,0.161,8.306-0.198,12.418c-0.647,7.394-1.713,14.748-2.45,22.135C280.279,134.781,280.643,136.827,280.741,138.695z
			"/>
		<path fill-rule="evenodd" clip-rule="evenodd" fill="#00A0C6" stroke="#000000" stroke-width="2" stroke-miterlimit="10" d="
			M381.741,33.393c-0.253,1.763-0.614,3.515-0.732,5.287c-0.125,1.881,0.026,3.776-0.018,5.664
			c-0.172,7.767-0.424,15.533-0.525,23.3c-0.031,2.143,0.446,4.289,0.533,6.439c0.06,1.526-0.111,3.066-0.23,4.596
			c-0.558,7.089-1.339,14.166-1.646,21.266c-0.386,8.973-0.422,17.961-0.551,26.943c-0.076,5.2,0.072,10.407-0.127,15.601
			c-0.055,1.45-0.79,2.982-1.558,4.274c-1.128,1.901-0.314,4.075,1.951,5.719c0.992,0.718,1.428,2.205,2.115,3.345
			c0.342-0.149,0.683-0.298,1.025-0.445c-0.203-0.852-0.406-1.701-0.579-2.426c2.337-0.514,4.947-1.85,7.153-1.36
			c2.341,0.517,1.915-1.608,3.246-2.065c3.907-1.34,7.5-3.581,11.25-5.399c1.697-0.822,3.474-1.477,5.272-2.284
			c1.768-0.709,3.536-1.414,5.304-2.123c0.309,0.289,0.617,0.578,0.926,0.867c-0.621,0.838-1.139,1.788-1.888,2.493
			c-2.168,2.034-4.439,3.952-6.645,5.947c-0.761,0.686-1.31,1.712-2.176,2.15c-7.69,3.88-15.86,6.413-24.411,7.107
			c-1.412,0.115-4.369-2.947-4.428-4.616c-0.389-11.502-1.849-23.004,0.153-34.558c0.743-4.287-0.316-8.863-0.283-13.305
			c0.055-7.349,0.38-14.696,0.476-22.043c0.032-2.331-0.491-4.671-0.41-6.996c0.062-1.696,0.97-3.363,1.031-5.059
			c0.322-8.822,1.014-17.681,0.474-26.458c-0.234-3.787,0.646-6.89,1.77-10.151c0.314-0.906,1.439-1.531,2.19-2.286
			C380.851,33.01,381.295,33.201,381.741,33.393z"/>
		<path fill-rule="evenodd" clip-rule="evenodd" fill="#00A0C6" stroke="#000000" stroke-width="2" stroke-miterlimit="10" d="
			M81.84,29.112c4.034,0.698,3.639,4.362,4.617,7.011c1.034,2.798,1.79,5.711,2.489,8.617c0.906,3.766,1.596,7.581,2.451,11.358
			c0.899,3.968,1.954,7.903,2.81,11.881c0.828,3.842,1.594,7.703,2.188,11.587c0.43,2.805,0.61,5.657,0.771,8.497
			c0.33,5.824,0.574,11.653,0.847,17.483c0.235,5.031-0.229,10.23,0.929,15.04c0.795,3.299,3.803,6.085,5.893,9.048
			c2.316,3.283,5.99,3.674,9.532,4.358c2.417,0.468,5.328,0.399,5.334,4.062c-5.43,3.812-11.334,1.742-16.376-2.022
			c-1.52-1.135-2.562-2.911-3.819-4.396c-0.445-0.526-0.832-1.472-1.328-1.53c-4.596-0.549-4.678-3.779-4.636-7.279
			c0.072-6.105,0.215-12.223-0.064-18.318c-0.223-4.847-0.859-9.69-1.614-14.487c-1.881-11.967-3.621-23.971-6.048-35.832
			c-1.244-6.072-3.557-11.985-5.938-17.744C78.485,33.078,79.115,30.968,81.84,29.112z"/>
		<path fill-rule="evenodd" clip-rule="evenodd" fill="#00A0C6" stroke="#000000" stroke-width="2" stroke-miterlimit="10" d="
			M502.536,147.014c-0.37,0.732-0.686,1.355-1.301,2.575c-0.419-1.766-0.681-2.867-1.097-4.621c-0.88,1.132-1.359,1.747-2.542,3.269
			c0.112-4.4,0.072-7.894,0.324-11.364c0.265-3.635,0.675-7.271,1.28-10.863c0.438-2.608,1.176-5.272,5.048-4.971
			c-0.015,3.525-0.042,6.918-0.04,10.31c0,5.2,2.087,7.096,7.054,7.558c4.779,0.443,9.495,1.571,14.249,2.335
			c5.623,0.9,11.269,1.669,16.88,2.636c1.448,0.251,2.8,1.039,4.204,1.558c2.178,0.802,3.402,2.521,2.567,4.571
			c-0.577,1.419-2.192,2.872-3.666,3.386c-5.217,1.816-10.44,1.645-15.874,0.101c-4.223-1.2-8.831-0.984-13.211-1.74
			c-1.644-0.286-3.858-2.614-4.55-2.146c-2.529,1.713-3.778-0.807-5.606-1.071C505.058,148.359,503.944,147.612,502.536,147.014z"/>
		<path fill-rule="evenodd" clip-rule="evenodd" fill="#00A0C6" stroke="#000000" stroke-width="2" stroke-miterlimit="10" d="
			M252.952,150.866c-5.135-1.39-9.902-3.043-14.808-3.865c-2.774-0.465-4.039-2.167-5.573-3.899
			c-4.466-5.045-4.296-11.163-4.408-17.398c-0.109-6.103-1.158-12.183-1.599-18.287c-0.129-1.791,0.043-3.799,0.778-5.382
			c0.436-0.94,2.55-2.021,3.367-1.694c2.379,0.961,2.9,3.196,2.654,5.746c-0.208,2.162-0.102,4.384,0.156,6.543
			c0.051,0.426,1.421,0.696,2.031,0.972c0.123,2.345,0.296,4.704,0.36,7.067c0.108,4.041,0.296,8.089,0.164,12.125
			c-0.086,2.645,0.746,4.025,3.435,4.627c4.236,0.948,8.438,2.103,12.563,3.453c1.561,0.511,3.384,1.501,4.161,2.821
			c1.126,1.912,1.104,4.187-1.5,5.488C254.046,149.527,253.56,150.274,252.952,150.866z"/>
		<path fill-rule="evenodd" clip-rule="evenodd" fill="#00A0C6" stroke="#000000" stroke-width="2" stroke-miterlimit="10" d="
			M489.189,138.681c-0.321,2.39-0.519,3.853-0.724,5.381c-3.305-1.634-2.677,0.417-1.96,2.208c-0.398,0.265-0.65,0.532-0.747,0.484
			c-3.935-1.982-7.888,0.032-11.829-0.051c-4.21-0.09-8.442,0.276-12.634-0.017c-5.072-0.355-10.342,0.493-15.136-2.024
			c-0.3-0.159-0.651-0.227-0.984-0.314c-3.522-0.923-4.91-2.731-4.647-6.381c0.413-5.746,0.9-11.488,1.411-17.23
			c0.314-3.516,1.75-4.52,5.516-3.944c-1.084,6.45-1.895,12.936,0.557,19.241c0.377,0.97,1.846,2.164,2.805,2.159
			c9.444-0.041,18.887-0.415,28.33-0.466C482.432,137.709,485.719,138.333,489.189,138.681z"/>
		<path fill-rule="evenodd" clip-rule="evenodd" fill="#00A0C6" stroke="#000000" stroke-width="2" stroke-miterlimit="10" d="
			M149.22,49.784c-2.437,2.292-2.936,0.333-3.021-1.182c-0.365-6.511-0.744-13.033-0.665-19.546c0.034-2.787,1.069-5.65,4.668-6.025
			c-0.574,6.272-1.135,12.325-1.678,18.381c-0.485,5.404,1.365,7.249,6.604,8.032c3.9,0.582,7.608,2.378,11.5,3.104
			c4.069,0.76,8.257,0.884,12.392,1.291c0.691,0.067,1.383,0.146,2.07,0.247c4.417,0.646,4.835,1.267,3.838,5.672
			c-0.127,0.563-0.263,1.123-0.474,2.027c-6.139,1.484-12.297,0.64-18.407-0.548c-3.58-0.696-7.081-1.788-10.625-2.679
			C151.259,57.511,149.473,54.64,149.22,49.784z"/>
		<path fill-rule="evenodd" clip-rule="evenodd" fill="#00A0C6" stroke="#000000" stroke-width="2" stroke-miterlimit="10" d="
			M335.224,99.738c-0.047,2.457-0.314,4.936-0.099,7.37c0.616,6.987,1.428,13.957,2.161,20.932c0.024,0.229,0.015,0.463,0.042,0.694
			c0.198,1.61-0.068,4.29,0.694,4.626c1.966,0.865,4.408,1.011,6.623,0.871c6.287-0.396,12.553-1.436,18.826-1.423
			c1.811,0.003,3.615,2.709,5.548,4.278c-1.861,1.216-2.877,1.907-3.918,2.561c-3.833,2.404-8.256,2.662-12.503,2.758
			c-5.144,0.118-10.307-0.663-15.466-0.991c-2.772-0.174-6.03-5.455-5.603-8.161c0.702-4.445,1.01-8.978,1.12-13.479
			c0.147-5.852-0.125-11.709-0.054-17.562c0.011-0.949,0.853-1.891,1.312-2.834C334.347,99.496,334.783,99.616,335.224,99.738z"/>
		<path fill-rule="evenodd" clip-rule="evenodd" fill="#00A0C6" stroke="#000000" stroke-width="2" stroke-miterlimit="10" d="
			M498.123,58.001c-0.316,0.069-0.808,0.177-1.468,0.318c0.26-2.85,0.272-5.664,0.888-8.339c0.226-0.982,1.874-1.637,2.874-2.442
			c0.847,1.35,2.73,3.141,2.373,3.978c-2.304,5.418,0.369,10.692,0.071,16.012c-0.074,1.308,1.069,2.75,1.862,3.999
			c0.269,0.426,1.176,0.62,1.794,0.622c5.072,0.015,10.157,0.15,15.218-0.131c5.068-0.283,10.108-1.065,15.173-1.5
			c1.423-0.122,2.886,0.21,4.328,0.334c0.173,0.35,0.342,0.701,0.513,1.053c-0.877,0.695-1.671,1.826-2.646,2.014
			c-5.321,1.028-10.69,1.787-16.029,2.727c-0.992,0.177-1.892,1.009-2.876,1.105c-1.8,0.18-3.634,0.004-5.451,0.041
			c-1.084,0.023-2.575-0.25-3.176,0.333c-2.911,2.83-5.71,1.845-8.63,0.218c-0.481-0.268-1.096-0.678-1.541-0.568
			c-3.79,0.914-3.892-1.958-4.114-4.224c-0.22-2.265,0.138-4.586,0.25-7.076L498.123,58.001z"/>
		<path fill-rule="evenodd" clip-rule="evenodd" fill="#00A0C6" stroke="#000000" stroke-width="2" stroke-miterlimit="10" d="
			M447.013,65.071c3.558,0.661,6.333,1.186,9.113,1.69c4.35,0.791,8.699,1.601,13.061,2.34c2.774,0.471,5.558,0.931,8.355,1.212
			c3.855,0.385,7.729,0.597,11.7,0.892c-0.121,3.402-2.885,2.988-4.929,3.672c-6.36,2.125-12.399-0.789-18.598-1.096
			c-4.491-0.22-8.973-0.608-13.463-0.8c-0.853-0.036-2.399,0.355-2.491,0.793c-1.01,4.696-4.584,0.973-6.609,2.124
			c-0.917-2.02-2.47-3.991-2.626-6.07c-0.367-4.841-0.129-9.735,0.004-14.601c0.056-2.062,1.165-3.187,3.621-2.519
			C444.75,57.122,443.481,62.209,447.013,65.071z"/>
		<path fill-rule="evenodd" clip-rule="evenodd" fill="#00A0C6" stroke="#000000" stroke-width="2" stroke-miterlimit="10" d="
			M518.914,110.109c-3.264,0.525-5.983,0.887-8.666,1.424c-1.646,0.331-3.279,0.823-4.846,1.438
			c-2.155,0.843-5.006-0.851-5.126-3.365c-0.191-3.981-0.191-7.972-0.233-11.957c-0.021-1.82,0.166-3.648,0.054-5.462
			c-0.309-4.918,0.141-5.495,5.305-5.857c0.265,5.058,0.527,10.107,0.794,15.157c0.013,0.231,0.048,0.461,0.046,0.689
			c-0.073,7.213-0.1,6.933,6.941,5.857c7.586-1.158,15.252-1.922,22.91-2.38c3.689-0.221,7.443,0.656,12.104,1.13
			c-2.802,1.316-2.151,6.355-6.803,4.027c-0.695,2.483-2.896,1.855-4.611,2.237c-0.339,0.076-0.687,0.3-1.004,0.256
			c-5.301-0.747-10.604-1.488-15.887-2.352C519.297,110.854,518.823,110.024,518.914,110.109z"/>
		<path fill-rule="evenodd" clip-rule="evenodd" fill="#00A0C6" stroke="#000000" stroke-width="2" stroke-miterlimit="10" d="
			M447.8,81.947c-0.388,2.225,0.882,4.689-1.876,6.189c0.256,0.669,0.978,1.641,0.918,2.559c-0.354,5.554,3.285,7.862,7.705,8.719
			c5.81,1.125,11.502,2.229,16.903,4.862c2.707,1.318,5.929,1.592,9.102,2.386c-0.09,0.151,0.45-1.017,0.581-0.973
			c1.292,0.431,2.515,1.064,4.14,1.818c-3.165,3.419-6.4,1.474-9.275,1.58c-3.631,0.129-7.299-0.559-10.915-0.336
			c-6.178,0.383-11.823-1.498-17.539-3.3c-0.853-0.268-1.798-0.242-3.319-0.426c-3.434-4.053-1.697-9.478-1.434-14.734
			c0.08-1.604-0.072-3.218-0.014-4.822C442.914,81.759,443.746,81.146,447.8,81.947z"/>
		<path fill-rule="evenodd" clip-rule="evenodd" fill="#00A0C6" stroke="#000000" stroke-width="2" stroke-miterlimit="10" d="
			M184.182,92.322c-0.531,3.832-2.316,5.151-5.465,5.221c-5.756,0.128-11.526,0.234-17.257,0.734
			c-6.453,0.563-12.649-0.692-16.582-5.601c-2.042-2.549-1.843-7.369-1.632-11.106c0.191-3.396,1.832-6.699,2.681-10.081
			c0.158-0.632-0.409-1.443-0.643-2.171c3.188,0.28,3.774,1.68,2.565,4.834c-1.751,4.572-1.644,9.536,0.384,13.713
			c1.44,2.966,4.516,5.57,8.822,4.825c1.292-0.223,2.713,0.452,4.069,0.428c5.599-0.096,11.197-0.29,16.794-0.474
			C179.921,92.579,181.921,92.44,184.182,92.322z"/>
		<path fill-rule="evenodd" clip-rule="evenodd" fill="#00A0C6" stroke="#000000" stroke-width="2" stroke-miterlimit="10" d="
			M146.291,132.971c2.852-0.406,5.693-0.983,8.56-1.179c4.421-0.3,8.861-0.308,13.291-0.497c4.437-0.191,8.872-0.457,13.394-0.693
			c-0.037,1.852-0.058,2.903-0.085,4.193c-0.769,0.752-1.824,1.785-2.97,2.903c-0.178-0.139-0.75-0.96-1.248-0.916
			c-3.669,0.319-7.336,1.255-10.979,1.15c-6.121-0.176-12.64,2.029-18.205-2.291c-0.82-0.638-1.131-1.928-1.678-2.916
			C146.369,132.726,146.291,132.971,146.291,132.971z"/>
		<path fill-rule="evenodd" clip-rule="evenodd" fill="#00A0C6" stroke="#000000" stroke-width="2" stroke-miterlimit="10" d="
			M146.291,132.971c0,0,0.079-0.245,0.08-0.245c-1.022,1.538-2.377,1.793-3.182,0.097c-1.257-2.649-2.098-5.497-3.115-8.259
			c3.624-2.576,1.662-6.523,1.675-9.56c0.015-3.398,2.329-5.792,2.32-8.948c-0.001-0.466,0.913-0.934,1.355-1.352
			c3.18,0.934,1.668,3.251,1.458,4.873C145.871,117.365,143.902,125.104,146.291,132.971z"/>
		<path fill-rule="evenodd" clip-rule="evenodd" fill="#00A0C6" stroke="#000000" stroke-width="2" stroke-miterlimit="10" d="
			M325.334,39.87c-1.193-6.674,1.677-12.977,2.359-19.476c0.096-0.895,1.974-1.601,3.027-2.395c0.281,0.166,0.563,0.333,0.848,0.498
			c-1.685,7.178-3.369,14.356-5.052,21.534C326.123,39.977,325.729,39.923,325.334,39.87z"/>
		<path fill-rule="evenodd" clip-rule="evenodd" fill="#00A0C6" stroke="#000000" stroke-width="2" stroke-miterlimit="10" d="
			M323.549,110.78c-1.153-1.066-3.007-2.004-3.046-3.011c-0.051-1.347,1.164-2.863,2.142-4.057c0.285-0.35,1.771-0.086,2.402,0.345
			c0.438,0.3,0.625,1.44,0.447,2.073C325.115,107.482,324.429,108.749,323.549,110.78z"/>
		<path fill-rule="evenodd" clip-rule="evenodd" fill="#00A0C6" stroke="#000000" stroke-width="2" stroke-miterlimit="10" d="
			M193.03,117.229c0.493-0.936,1.301-1.828,1.428-2.812c0.944-7.299,2.223-14.601,2.498-21.936
			c0.485-12.905,3.332-25.705,1.759-38.715c-0.211-1.745,0.552-3.607,0.908-5.67c-0.746-0.016-1.406-0.029-2.554-0.052
			c4.047-3.083,0.751-7.157,2.252-10.284c0.58-1.208,2.298-1.87,3.498-2.782c0.444,1.163,1.247,2.315,1.275,3.487
			c0.191,7.922,0.57,15.865,0.211,23.771c-0.448,9.856-1.22,19.726-2.47,29.511c-0.974,7.632-2.901,15.142-4.384,22.708
			c-0.437,2.235-1.435,4.606-1.027,6.693c0.436,2.229,1.794,4.745,3.546,6.126c1.875,1.477,4.655,1.849,7.082,2.566
			c3.488,1.03,5.527,3.327,5.063,5.901c-0.399,2.218-4.396,4.654-7.188,4.021c-4.151-0.94-8.3-2.006-12.296-3.449
			c-1.164-0.418-2.658-2.407-2.522-3.492c0.473-3.762,1.623-7.437,2.456-11.157c0.236-1.057,0.274-2.158,0.523-4.262L193.03,117.229
			z"/>
	</g>
</g>
</svg>
